<svg viewBox="0 0 330 200" xmlns="http://www.w3.org/2000/svg"><g><g><g><g><g><line x1="41.171875" y1="177" x2="36.171875" y2="177" style="visibility: inherit;" fill="rgb(0, 0, 0)" stroke="rgb(204, 204, 204)" stroke-width="1px"></line><line x1="41.171875" y1="154.875" x2="36.171875" y2="154.875" style="visibility: inherit;" fill="rgb(0, 0, 0)" stroke="rgb(204, 204, 204)" stroke-width="1px"></line><line x1="41.171875" y1="132.75" x2="36.171875" y2="132.75" style="visibility: inherit;" fill="rgb(0, 0, 0)" stroke="rgb(204, 204, 204)" stroke-width="1px"></line><line x1="41.171875" y1="110.625" x2="36.171875" y2="110.625" style="visibility: inherit;" fill="rgb(0, 0, 0)" stroke="rgb(204, 204, 204)" stroke-width="1px"></line><line x1="41.171875" y1="88.5" x2="36.171875" y2="88.5" style="visibility: inherit;" fill="rgb(0, 0, 0)" stroke="rgb(204, 204, 204)" stroke-width="1px"></line><line x1="41.171875" y1="66.37500000000001" x2="36.171875" y2="66.37500000000001" style="visibility: inherit;" fill="rgb(0, 0, 0)" stroke="rgb(204, 204, 204)" stroke-width="1px"></line><line x1="41.171875" y1="44.24999999999998" x2="36.171875" y2="44.24999999999998" style="visibility: inherit;" fill="rgb(0, 0, 0)" stroke="rgb(204, 204, 204)" stroke-width="1px"></line><line x1="41.171875" y1="22.12500000000002" x2="36.171875" y2="22.12500000000002" style="visibility: inherit;" fill="rgb(0, 0, 0)" stroke="rgb(204, 204, 204)" stroke-width="1px"></line><line x1="41.171875" y1="0" x2="36.171875" y2="0" style="visibility: inherit;" fill="rgb(0, 0, 0)" stroke="rgb(204, 204, 204)" stroke-width="1px"></line></g><g transform="translate(31.171875, 0)"><text x="0" y="177" dx="0em" dy="0.3em" style="text-anchor: end; visibility: hidden; font-family: Roboto, sans-serif; font-size: 12px; font-weight: 200;" fill="rgb(255, 255, 255)" stroke="none" stroke-width="1px">0.2</text><text x="0" y="154.875" dx="0em" dy="0.3em" style="text-anchor: end; visibility: inherit; font-family: Roboto, sans-serif; font-size: 12px; font-weight: 200;" fill="rgb(255, 255, 255)" stroke="none" stroke-width="1px">0.3</text><text x="0" y="132.75" dx="0em" dy="0.3em" style="text-anchor: end; visibility: hidden; font-family: Roboto, sans-serif; font-size: 12px; font-weight: 200;" fill="rgb(255, 255, 255)" stroke="none" stroke-width="1px">0.4</text><text x="0" y="110.625" dx="0em" dy="0.3em" style="text-anchor: end; visibility: inherit; font-family: Roboto, sans-serif; font-size: 12px; font-weight: 200;" fill="rgb(255, 255, 255)" stroke="none" stroke-width="1px">0.5</text><text x="0" y="88.5" dx="0em" dy="0.3em" style="text-anchor: end; visibility: hidden; font-family: Roboto, sans-serif; font-size: 12px; font-weight: 200;" fill="rgb(255, 255, 255)" stroke="none" stroke-width="1px">0.6</text><text x="0" y="66.37500000000001" dx="0em" dy="0.3em" style="text-anchor: end; visibility: inherit; font-family: Roboto, sans-serif; font-size: 12px; font-weight: 200;" fill="rgb(255, 255, 255)" stroke="none" stroke-width="1px">0.7</text><text x="0" y="44.24999999999998" dx="0em" dy="0.3em" style="text-anchor: end; visibility: hidden; font-family: Roboto, sans-serif; font-size: 12px; font-weight: 200;" fill="rgb(255, 255, 255)" stroke="none" stroke-width="1px">0.8</text><text x="0" y="22.12500000000002" dx="0em" dy="0.3em" style="text-anchor: end; visibility: inherit; font-family: Roboto, sans-serif; font-size: 12px; font-weight: 200;" fill="rgb(255, 255, 255)" stroke="none" stroke-width="1px">0.9</text><text x="0" y="0" dx="0em" dy="0.3em" style="text-anchor: end; visibility: hidden; font-family: Roboto, sans-serif; font-size: 12px; font-weight: 200;" fill="rgb(255, 255, 255)" stroke="none" stroke-width="1px">1</text></g><line x1="41.171875" y1="0" x2="41.171875" y2="177" fill="rgb(0, 0, 0)" stroke="rgb(204, 204, 204)" stroke-width="1px"></line></g></g><g transform="translate(41, 0)" clip-path="url(#clip_0)"><clipPath id="clip_0"><rect width="288" height="177"></rect></clipPath><g><g><g><line x1="0" y1="0" x2="0" y2="177" fill="rgb(0, 0, 0)" stroke="rgb(189, 189, 189)" stroke-width="1px" opacity="0.25"></line><line x1="22.217548076923077" y1="0" x2="22.217548076923077" y2="177" fill="rgb(0, 0, 0)" stroke="rgb(189, 189, 189)" stroke-width="1px" opacity="0.25"></line><line x1="44.43509615384615" y1="0" x2="44.43509615384615" y2="177" fill="rgb(0, 0, 0)" stroke="rgb(189, 189, 189)" stroke-width="1px" opacity="0.25"></line><line x1="66.65264423076924" y1="0" x2="66.65264423076924" y2="177" fill="rgb(0, 0, 0)" stroke="rgb(189, 189, 189)" stroke-width="1px" opacity="0.25"></line><line x1="88.8701923076923" y1="0" x2="88.8701923076923" y2="177" fill="rgb(0, 0, 0)" stroke="rgb(189, 189, 189)" stroke-width="1px" opacity="0.25"></line><line x1="111.08774038461539" y1="0" x2="111.08774038461539" y2="177" fill="rgb(0, 0, 0)" stroke="rgb(189, 189, 189)" stroke-width="1px" opacity="0.25"></line><line x1="133.30528846153848" y1="0" x2="133.30528846153848" y2="177" fill="rgb(0, 0, 0)" stroke="rgb(189, 189, 189)" stroke-width="1px" opacity="0.25"></line><line x1="155.52283653846152" y1="0" x2="155.52283653846152" y2="177" fill="rgb(0, 0, 0)" stroke="rgb(189, 189, 189)" stroke-width="1px" opacity="0.25"></line><line x1="177.7403846153846" y1="0" x2="177.7403846153846" y2="177" fill="rgb(0, 0, 0)" stroke="rgb(189, 189, 189)" stroke-width="1px" opacity="0.25"></line><line x1="199.95793269230768" y1="0" x2="199.95793269230768" y2="177" fill="rgb(0, 0, 0)" stroke="rgb(189, 189, 189)" stroke-width="1px" opacity="0.25"></line><line x1="222.17548076923077" y1="0" x2="222.17548076923077" y2="177" fill="rgb(0, 0, 0)" stroke="rgb(189, 189, 189)" stroke-width="1px" opacity="0.25"></line><line x1="244.39302884615384" y1="0" x2="244.39302884615384" y2="177" fill="rgb(0, 0, 0)" stroke="rgb(189, 189, 189)" stroke-width="1px" opacity="0.25"></line><line x1="266.61057692307696" y1="0" x2="266.61057692307696" y2="177" fill="rgb(0, 0, 0)" stroke="rgb(189, 189, 189)" stroke-width="1px" opacity="0.25"></line><line x1="288.828125" y1="0" x2="288.828125" y2="177" fill="rgb(0, 0, 0)" stroke="rgb(189, 189, 189)" stroke-width="1px" opacity="0.25"></line></g><g><line x1="0" y1="177" x2="288.828125" y2="177" fill="rgb(0, 0, 0)" stroke="rgb(189, 189, 189)" stroke-width="1px" opacity="0.25"></line><line x1="0" y1="154.875" x2="288.828125" y2="154.875" fill="rgb(0, 0, 0)" stroke="rgb(189, 189, 189)" stroke-width="1px" opacity="0.25"></line><line x1="0" y1="132.75" x2="288.828125" y2="132.75" fill="rgb(0, 0, 0)" stroke="rgb(189, 189, 189)" stroke-width="1px" opacity="0.25"></line><line x1="0" y1="110.625" x2="288.828125" y2="110.625" fill="rgb(0, 0, 0)" stroke="rgb(189, 189, 189)" stroke-width="1px" opacity="0.25"></line><line x1="0" y1="88.5" x2="288.828125" y2="88.5" fill="rgb(0, 0, 0)" stroke="rgb(189, 189, 189)" stroke-width="1px" opacity="0.25"></line><line x1="0" y1="66.37500000000001" x2="288.828125" y2="66.37500000000001" fill="rgb(0, 0, 0)" stroke="rgb(189, 189, 189)" stroke-width="1px" opacity="0.25"></line><line x1="0" y1="44.24999999999998" x2="288.828125" y2="44.24999999999998" fill="rgb(0, 0, 0)" stroke="rgb(189, 189, 189)" stroke-width="1px" opacity="0.25"></line><line x1="0" y1="22.12500000000002" x2="288.828125" y2="22.12500000000002" fill="rgb(0, 0, 0)" stroke="rgb(189, 189, 189)" stroke-width="1px" opacity="0.25"></line><line x1="0" y1="0" x2="288.828125" y2="0" fill="rgb(0, 0, 0)" stroke="rgb(189, 189, 189)" stroke-width="1px" opacity="0.25"></line></g></g></g><g><g><line x1="0" y1="221.25" x2="288.828125" y2="221.25" fill="rgb(0, 0, 0)" stroke="rgb(153, 153, 153)" stroke-width="1.5px"></line></g></g><g><g><line x1="22.217548076923077" y1="0" x2="22.217548076923077" y2="177" fill="rgb(0, 0, 0)" stroke="rgb(153, 153, 153)" stroke-width="1.5px"></line></g></g><g><g><g><g><g><path stroke="rgb(255, 112, 67)" stroke-width="2px" d="M22.217548076923077,127.91200250387192L26.661057692307693,103.603999838233L31.10456730769231,98.647995069623L35.54807692307693,81.3020047545433L39.99158653846154,87.3200011253357L44.43509615384615,77.17200078070164L48.878605769230774,79.06000636518002L53.32211538461539,81.4199935644865L57.765625,71.62599921226501L62.20913461538462,68.08600522577763L66.65264423076924,70.44600561261177L71.09615384615385,76.10999599099159L75.53966346153847,65.1359948515892L79.98317307692308,59.23600047826767L84.4266826923077,58.7640056759119L88.8701923076923,61.00600406527519L93.31370192307693,58.05599369108677L97.75721153846155,54.27999570965767L102.20072115384616,53.57199691236019L106.64423076923077,52.627994120121L111.08774038461539,52.27400131523609L115.53125,53.92600290477276L119.97475961538463,54.75200369954109L124.41826923076924,52.627994120121L128.86177884615384,51.802006512880325L133.30528846153848,50.621999725699425L137.7487980769231,53.68999890983105L142.1923076923077,48.96999813616276L146.6358173076923,54.27999570965767L151.07932692307693,50.26799373328686L155.52283653846152,50.50399772822857L159.96634615384616,49.44200612604618L164.40985576923077,48.61600533127785L168.8533653846154,48.380001336336136L173.296875,48.02599534392357L177.7403846153846,49.44200612604618L182.18389423076923,48.8519961386919L186.62740384615387,48.49800333380699L191.07091346153845,48.73399414122105L195.5144230769231,48.380001336336136L199.95793269230768,48.143997341394424L204.40144230769232,48.61600533127785L208.8449519230769,48.8519961386919L213.28846153846155,48.61600533127785L217.73197115384616,48.26199933886528L222.17548076923077,48.143997341394424L226.6189903846154,48.143997341394424L231.0625,48.143997341394424" style="fill: none;" fill="none"></path></g><g><path stroke="rgb(187, 187, 187)" stroke-width="2px" d="M22.217548076923077,156.66350305080414L26.661057692307693,110.52187353372574L31.10456730769231,92.16540209949017L35.54807692307693,78.55273492634296L39.99158653846154,74.22143653035164L44.43509615384615,66.47223427891731L48.878605769230774,62.84807749092579L53.32211538461539,58.60517509281635L57.765625,56.07121802866459L62.20913461538462,52.06402949988842L66.65264423076924,50.030961111187935L71.09615384615385,49.82470817863941L75.53966346153847,47.82111391425133L79.98317307692308,37.331701666116714L84.4266826923077,32.057534605264664L88.8701923076923,30.02446621656418L93.31370192307693,27.54944421350956L97.75721153846155,27.225334346294403L102.20072115384616,26.8422894179821L106.64423076923077,26.19406968355179L111.08774038461539,25.280661955475807L115.53125,23.306528627872467L119.97475961538463,23.365463688969612L124.41826923076924,23.15921075642109L128.86177884615384,22.18688115477562L133.30528846153848,22.245803028345108L137.7487980769231,21.361869424581528L142.1923076923077,20.094890892505646L146.6358173076923,21.18507742881775L151.07932692307693,21.27347342669964L155.52283653846152,19.299340099096298L159.96634615384616,19.06362622976303L164.40985576923077,18.710042238235474L168.8533653846154,18.209153562784195L173.296875,18.945769295096397L177.7403846153846,17.914504632353783L182.18389423076923,17.118953838944435L186.62740384615387,17.17788890004158L191.07091346153845,17.060031965374947L195.5144230769231,16.500195041298866L199.95793269230768,16.2644811719656L204.40144230769232,15.527865439653397L208.8449519230769,14.85018476843834L213.28846153846155,17.0010969042778L217.73197115384616,16.441273167729378L222.17548076923077,16.529669165611267L226.6189903846154,15.881436243653297L231.0625,15.704657435417175" style="fill: none;" fill="none"></path></g><g><path stroke="rgb(0, 153, 136)" stroke-width="2px" d="M22.217548076923077,138.76800164580345L26.661057692307693,103.36799584329128L31.10456730769231,84.8419987410307L35.54807692307693,77.6439955830574L39.99158653846154,70.32800361514091L44.43509615384615,66.90599843859673L48.878605769230774,62.77599446475506L53.32211538461539,60.77000007033348L57.765625,58.29199768602848L62.20913461538462,58.8819944858551L66.65264423076924,56.2860032916069L71.09615384615385,54.397997707128525L75.53966346153847,53.8080009073019L79.98317307692308,54.634001702070236L84.4266826923077,52.74599611759186L88.8701923076923,52.39200331270695L93.31370192307693,51.3299985229969L97.75721153846155,50.97600571811199L102.20072115384616,50.0320029258728L106.64423076923077,49.088000133633614" style="fill: none;" fill="none"></path></g><g><path stroke="rgb(238, 51, 119)" stroke-width="2px" d="M22.217548076923077,176.05123914778233L26.661057692307693,97.881535962224L31.10456730769231,54.30333763360977L35.54807692307693,29.4941034168005L39.99158653846154,16.824304908514023L44.43509615384615,9.104576781392097L48.878605769230774,4.655408263206482L53.32211538461539,2.740209996700287L57.765625,1.2375175952911377L62.20913461538462,0.7071547955274582L66.65264423076924,0.2946489304304123L71.09615384615385,0.1178569346666336L75.53966346153847,0.1767919957637787L79.98317307692308,0.08839599788188934L84.4266826923077,0.05893506109714508L88.8701923076923,0.1178569346666336L93.31370192307693,0.08839599788188934L97.75721153846155,0.1178569346666336L102.20072115384616,0.08839599788188934L106.64423076923077,0.14731787145137787" style="fill: none;" fill="none"></path></g><g><path stroke="rgb(187, 187, 187)" stroke-width="2px" d="M22.217548076923077,141.36399943381548L26.661057692307693,102.89600104093552L31.10456730769231,85.54999753832817L35.54807692307693,75.51999919116497L39.99158653846154,68.91200602054596L44.43509615384615,66.66999444365501L48.878605769230774,63.24800245463848L53.32211538461539,59.94399927556515L57.765625,58.52800168097019L62.20913461538462,57.93800488114357L66.65264423076924,56.2860032916069L71.09615384615385,55.46000249683857L75.53966346153847,53.57199691236019L79.98317307692308,52.03799732029438L84.4266826923077,51.566002517938614L88.8701923076923,50.74000172317028L93.31370192307693,50.621999725699425L97.75721153846155,49.677996933460236L102.20072115384616,49.324004128575325L106.64423076923077,46.3739937543869L111.08774038461539,47.43599854409695L115.53125,44.13199536502361L119.97475961538463,44.604003354907036L124.41826923076924,45.78399695456028L128.86177884615384,44.604003354907036L133.30528846153848,44.83999416232109L137.7487980769231,45.665994957089424L142.1923076923077,44.72200535237789L146.6358173076923,44.367999359965324L151.07932692307693,43.66000056266785L155.52283653846152,43.30599457025528L159.96634615384616,44.014006555080414L164.40985576923077,43.070003762841225L168.8533653846154,42.95200176537037L173.296875,42.00799897313118L177.7403846153846,42.24400296807289L182.18389423076923,42.00799897313118L186.62740384615387,41.77199497818947L191.07091346153845,41.889996975660324L195.5144230769231,42.00799897313118L199.95793269230768,42.00799897313118L204.40144230769232,42.00799897313118L208.8449519230769,42.00799897313118L213.28846153846155,42.00799897313118L217.73197115384616,42.00799897313118L222.17548076923077,42.00799897313118L226.6189903846154,42.00799897313118L231.0625,42.00799897313118L235.5060096153846,42.00799897313118L239.94951923076925,42.00799897313118" style="fill: none;" fill="none"></path></g><g><path stroke="rgb(0, 153, 136)" stroke-width="2px" d="M22.217548076923077,174.0771091170609L26.661057692307693,95.93687675893307L31.10456730769231,52.32920430600643L35.54807692307693,29.022675678133965L39.99158653846154,15.351073443889618L44.43509615384615,7.955455183982849L48.878605769230774,4.125045463442802L53.32211538461539,2.121451199054718L57.765625,1.0312646627426147L62.20913461538462,0.5892978608608246L66.65264423076924,0.32410986721515656L71.09615384615385,0.20625293254852295L75.53966346153847,0.14731787145137787L79.98317307692308,0.14731787145137787L84.4266826923077,0.08839599788188934L88.8701923076923,0.1178569346666336L93.31370192307693,0.1178569346666336L97.75721153846155,0.1178569346666336L102.20072115384616,0.08839599788188934L106.64423076923077,0.1178569346666336L111.08774038461539,0.1178569346666336L115.53125,0.14731787145137787L119.97475961538463,0.08839599788188934L124.41826923076924,0.08839599788188934L128.86177884615384,0.1178569346666336L133.30528846153848,0.1178569346666336L137.7487980769231,0.14731787145137787L142.1923076923077,0.08839599788188934L146.6358173076923,0.08839599788188934L151.07932692307693,0.1178569346666336L155.52283653846152,0.1178569346666336L159.96634615384616,0.08839599788188934L164.40985576923077,0.1178569346666336L168.8533653846154,0.1767919957637787L173.296875,0.05893506109714508L177.7403846153846,0.029460936784744263L182.18389423076923,0.05893506109714508L186.62740384615387,0.08839599788188934L191.07091346153845,0.05893506109714508L195.5144230769231,0.08839599788188934L199.95793269230768,0.05893506109714508L204.40144230769232,0.08839599788188934L208.8449519230769,0.08839599788188934L213.28846153846155,0.05893506109714508L217.73197115384616,0.08839599788188934L222.17548076923077,0.05893506109714508L226.6189903846154,0.05893506109714508L231.0625,0.05893506109714508L235.5060096153846,0.05893506109714508L239.94951923076925,0.05893506109714508" style="fill: none;" fill="none"></path></g><g><path stroke="rgb(255, 112, 67)" stroke-width="2px" d="M22.217548076923077,142.8979990258813L26.661057692307693,104.31199863553047L31.10456730769231,88.14600192010403L35.54807692307693,75.28399519622326L39.99158653846154,68.20399403572083L44.43509615384615,64.54599805176258L48.878605769230774,61.12400606274605L53.32211538461539,58.05599369108677L57.765625,55.931997299194336L62.20913461538462,55.81399530172348" style="fill: none;" fill="none"></path></g><g><path stroke="rgb(187, 187, 187)" stroke-width="2px" d="M22.217548076923077,175.57980481535196L26.661057692307693,99.14852768182755L31.10456730769231,52.5649181753397L35.54807692307693,30.112862214446068L39.99158653846154,16.17608517408371L44.43509615384615,8.30902598798275L48.878605769230774,4.567025452852249L53.32211538461539,1.915198266506195L57.765625,1.2375175952911377L62.20913461538462,0.7955507934093475" style="fill: none;" fill="none"></path></g><g><path style="fill: none;" fill="none" stroke="none" stroke-width="1px"></path></g><g><path style="fill: none;" fill="none" stroke="none" stroke-width="1px"></path></g><g><path style="fill: none;" fill="none" stroke="none" stroke-width="1px"></path></g><g><path style="fill: none;" fill="none" stroke="none" stroke-width="1px"></path></g><g><path style="fill: none;" fill="none" stroke="none" stroke-width="1px"></path></g><g><path style="fill: none;" fill="none" stroke="none" stroke-width="1px"></path></g><g><path style="fill: none;" fill="none" stroke="none" stroke-width="1px"></path></g><g><path style="fill: none;" fill="none" stroke="none" stroke-width="1px"></path></g><g><path style="fill: none;" fill="none" stroke="none" stroke-width="1px"></path></g><g><path style="fill: none;" fill="none" stroke="none" stroke-width="1px"></path></g><g><path style="fill: none;" fill="none" stroke="none" stroke-width="1px"></path></g><g><path style="fill: none;" fill="none" stroke="none" stroke-width="1px"></path></g><g><path style="fill: none;" fill="none" stroke="none" stroke-width="1px"></path></g><g><path style="fill: none;" fill="none" stroke="none" stroke-width="1px"></path></g><g><path style="fill: none;" fill="none" stroke="none" stroke-width="1px"></path></g><g><path style="fill: none;" fill="none" stroke="none" stroke-width="1px"></path></g><g><path style="fill: none;" fill="none" stroke="none" stroke-width="1px"></path></g><g><path style="fill: none;" fill="none" stroke="none" stroke-width="1px"></path></g><g><path stroke="rgb(51, 187, 238)" stroke-width="2px" d="M26.661057692307693,184.90600129589438L31.10456730769231,172.51599926501513L35.54807692307693,166.85199899598956L39.99158653846154,162.36799892038107L44.43509615384615,158.35599694401026L48.878605769230774,158.00199754536152L53.32211538461539,155.64199715852737L57.765625,153.39999876916409L62.20913461538462,156.23200055211782L66.65264423076924,154.4619969651103L71.09615384615385,156.4679979532957L75.53966346153847,155.4059997573495L79.98317307692308,154.4619969651103L84.4266826923077,156.35000254958868L88.8701923076923,155.87800115346909L93.31370192307693,156.70400194823742L97.75721153846155,156.11399855464697L102.20072115384616,157.17599675059319L106.64423076923077,156.70400194823742" style="fill: none;" fill="none"></path></g><g><path stroke="rgb(204, 51, 17)" stroke-width="2px" d="M22.217548076923077,199.71134682185948L26.661057692307693,176.93517934530973L31.10456730769231,151.83130279183388L35.54807692307693,131.64802249521017L39.99158653846154,113.49780399352312L44.43509615384615,96.37884356081486L48.878605769230774,81.55813291668892L53.32211538461539,67.76867374777794L57.765625,56.63104176521301L62.20913461538462,45.46394884586334L66.65264423076924,36.329897940158844L71.09615384615385,27.195860221982002L75.53966346153847,19.800241962075233L79.98317307692308,13.907316103577614L84.4266826923077,8.809927850961685L88.8701923076923,5.303641185164452L93.31370192307693,2.9170019924640656L97.75721153846155,1.915198266506195L102.20072115384616,0.8839336037635803L106.64423076923077,0.6187587976455688" style="fill: none;" fill="none"></path></g><g><path stroke="rgb(238, 51, 119)" stroke-width="2px" d="M48.878605769230774,179.83200112357736L53.32211538461539,174.52200025320053L57.765625,174.63999895378947L62.20913461538462,170.39199957624078L66.65264423076924,171.09999837353826L71.09615384615385,165.9079995006323L75.53966346153847,168.62199928611517L79.98317307692308,164.9639967083931L84.4266826923077,162.01399952173233L88.8701923076923,165.2000007033348L93.31370192307693,164.37399990856647L97.75721153846155,164.37399990856647L102.20072115384616,165.78999750316143L106.64423076923077,160.24400252848864L111.08774038461539,162.1320015192032L115.53125,160.59800192713737L119.97475961538463,160.59800192713737L124.41826923076924,158.35599694401026L128.86177884615384,158.82799834012985L133.30528846153848,158.71000293642282L137.7487980769231,158.4739989414811L142.1923076923077,157.76600014418364L146.6358173076923,157.76600014418364L151.07932692307693,153.1640013679862L155.52283653846152,156.35000254958868L159.96634615384616,156.70400194823742L164.40985576923077,155.28799775987864L168.8533653846154,154.698000960052L173.296875,155.05200035870075L177.7403846153846,153.75399816781282L182.18389423076923,155.4059997573495L186.62740384615387,151.74799717962742L191.07091346153845,150.33199958503246L195.5144230769231,151.39399778097868L199.95793269230768,153.51800076663494L204.40144230769232,152.57399797439575L208.8449519230769,152.219998575747L213.28846153846155,154.57999896258116L217.73197115384616,151.74799717962742L222.17548076923077,150.9220029786229L226.6189903846154,150.6859989836812L231.0625,152.45600257068872L235.5060096153846,153.39999876916409L239.94951923076925,149.85999818891287" style="fill: none;" fill="none"></path></g><g><path stroke="rgb(51, 187, 238)" stroke-width="2px" d="M35.54807692307693,178.40841080993414L39.99158653846154,173.31102585420012L44.43509615384615,166.1511181667447L48.878605769230774,163.32251217216253L53.32211538461539,157.66530018299818L57.765625,153.24560578912497L62.20913461538462,150.21074686199427L66.65264423076924,146.8517780676484L71.09615384615385,142.99190741032362L75.53966346153847,138.5722130164504L79.98317307692308,135.89093148708344L84.4266826923077,133.59268829226494L88.8701923076923,131.23551663011312L93.31370192307693,129.73281763494015L97.75721153846155,127.58189890533686L102.20072115384616,124.16400164365768L106.64423076923077,121.80682998150587L111.08774038461539,119.89163171499968L115.53125,117.6523169875145L119.97475961538463,115.76657965779305L124.41826923076924,112.20135793089867L128.86177884615384,110.81652246415615L133.30528846153848,108.75399313867092L137.7487980769231,107.87005953490734L142.1923076923077,105.74859514832497L146.6358173076923,103.77447500824928L151.07932692307693,102.65481434762478L155.52283653846152,101.91819861531258L159.96634615384616,97.70475715398788L164.40985576923077,96.61455743014812L168.8533653846154,95.3181179612875L173.296875,93.96274343132973L177.7403846153846,91.81183129549026L182.18389423076923,90.54485276341438L186.62740384615387,89.04214717447758L191.07091346153845,86.33139811456203L195.5144230769231,85.27067251503468L199.95793269230768,82.91350744664669L204.40144230769232,81.94116465747356L208.8449519230769,80.29115438461304L213.28846153846155,78.87684479355812L217.73197115384616,76.7553935945034L222.17548076923077,75.48841506242752L226.6189903846154,73.77946972846985L231.0625,71.54014840722084L235.5060096153846,70.15531294047832L239.94951923076925,69.30084027349949" style="fill: none;" fill="none"></path></g><g><path stroke="rgb(204, 51, 17)" stroke-width="2px" d="M44.43509615384615,180.65799862146378L48.878605769230774,175.9380011446774L53.32211538461539,169.80199947953224L57.765625,172.63400126248598L62.20913461538462,169.80199947953224L66.65264423076924,166.49799959734082L71.09615384615385,167.9140004888177L75.53966346153847,165.31800270080566L79.98317307692308,165.55400010198355L84.4266826923077,162.84000031650066L88.8701923076923,160.9520013257861L93.31370192307693,161.89599752426147L97.75721153846155,163.31200171262026L102.20072115384616,160.00799853354692L106.64423076923077,161.54199812561274L111.08774038461539,159.8900031298399L115.53125,155.52400175482035L119.97475961538463,155.05200035870075L124.41826923076924,158.59200093895197L128.86177884615384,153.87200016528368L133.30528846153848,159.06400233507156L137.7487980769231,154.9339983612299L142.1923076923077,156.9399993494153L146.6358173076923,154.22599956393242L151.07932692307693,152.81000196933746L155.52283653846152,153.28199677169323L159.96634615384616,153.39999876916409L164.40985576923077,156.35000254958868L168.8533653846154,152.57399797439575L173.296875,152.6919999718666L177.7403846153846,149.74200278520584L182.18389423076923,152.219998575747L186.62740384615387,151.1580003798008L191.07091346153845,152.57399797439575L195.5144230769231,149.38799679279327" style="fill: none;" fill="none"></path></g><g><path stroke="rgb(0, 119, 187)" stroke-width="2px" d="M31.10456730769231,181.17808504030108L35.54807692307693,174.31282298639417L39.99158653846154,168.65561429411173L44.43509615384615,162.40911103785038L48.878605769230774,158.49031191319227L53.32211538461539,154.01168905198574L57.765625,148.3544770628214L62.20913461538462,143.49280927330256L66.65264423076924,139.9865160137415L71.09615384615385,137.688272818923L75.53966346153847,133.6221558228135L79.98317307692308,130.41050489991903L84.4266826923077,127.90601536631584L88.8701923076923,125.10687030851841L93.31370192307693,121.95415444672108L97.75721153846155,120.30413758009672L102.20072115384616,115.82550812512636L106.64423076923077,115.32461285591125L111.08774038461539,112.84957766532898L115.53125,111.02277539670467L119.97475961538463,108.34148727357388L124.41826923076924,107.16290473937988L128.86177884615384,104.74680460989475L133.30528846153848,102.36016541719437L137.7487980769231,100.06192222237587L142.1923076923077,98.23511995375156L146.6358173076923,97.1743943542242L151.07932692307693,93.66809450089931L155.52283653846152,91.63503929972649L159.96634615384616,90.25020383298397L164.40985576923077,87.62785077095032L168.8533653846154,86.71444304287434L173.296875,84.3867389112711L177.7403846153846,82.97242932021618L182.18389423076923,81.64652891457081L186.62740384615387,78.6705918610096L191.07091346153845,77.63932719826698L195.5144230769231,75.04644826054573" style="fill: none;" fill="none"></path></g><g><path stroke="rgb(0, 153, 136)" stroke-width="2px" d="M44.43509615384615,181.60200141370296L48.878605769230774,176.17399854585528L53.32211538461539,177.708001434803L57.765625,172.27999856695533L62.20913461538462,171.33599907159805L66.65264423076924,168.03199918940663L71.09615384615385,166.73400029540062L75.53966346153847,166.14400019869208L79.98317307692308,166.38000089675188L84.4266826923077,162.48600091785192L88.8701923076923,165.78999750316143L93.31370192307693,163.31200171262026L97.75721153846155,161.06999672949314L102.20072115384616,162.01399952173233L106.64423076923077,160.24400252848864" style="fill: none;" fill="none"></path></g><g><path stroke="rgb(238, 51, 119)" stroke-width="2px" d="M31.10456730769231,184.30133996531367L35.54807692307693,175.81552198156714L39.99158653846154,169.9225928261876L44.43509615384615,163.91180343925953L48.878605769230774,158.87335024774075L53.32211538461539,155.98581578582525L57.765625,151.18308305740356L62.20913461538462,148.53126246482134L66.65264423076924,144.52407393604517L71.09615384615385,141.28296207636595L75.53966346153847,139.63293861597776L79.98317307692308,135.36056868731976L84.4266826923077,133.59268829226494L88.8701923076923,131.23551663011312L93.31370192307693,128.90781249850988L97.75721153846155,127.02207516878843L102.20072115384616,123.01488004624844L106.64423076923077,121.80682998150587" style="fill: none;" fill="none"></path></g><g><path stroke="rgb(238, 51, 119)" stroke-width="2px" d="M22.217548076923077,71.50799721479416L26.661057692307693,67.26000443100929L31.10456730769231,58.52800168097019L35.54807692307693,64.66400004923344L39.99158653846154,63.48400644958019L44.43509615384615,53.68999890983105L48.878605769230774,47.790004536509514L53.32211538461539,37.5240021944046L57.765625,36.57999940216541L62.20913461538462,37.05199420452118L66.65264423076924,33.98399502038956L71.09615384615385,33.7480042129755L75.53966346153847,34.691993817687035L79.98317307692308,35.28200380504131L84.4266826923077,32.80400142073631L88.8701923076923,33.040005415678024L93.31370192307693,34.21999901533127L97.75721153846155,35.28200380504131L102.20072115384616,32.449995428323746L106.64423076923077,33.393998220562935L111.08774038461539,35.28200380504131L115.53125,33.86600621044636L119.97475961538463,31.859998628497124L124.41826923076924,32.096002623438835L128.86177884615384,31.151999831199646L133.30528846153848,31.506005823612213L137.7487980769231,30.915995836257935L142.1923076923077,31.03399783372879L146.6358173076923,31.388003826141357L151.07932692307693,31.388003826141357" style="fill: none;" fill="none"></path></g><g><path stroke="rgb(51, 187, 238)" stroke-width="2px" d="M22.217548076923077,108.34148727357388L26.661057692307693,72.54195213317871L31.10456730769231,63.790946155786514L35.54807692307693,58.45784403383732L39.99158653846154,51.35687470436096L44.43509615384615,53.62564377486706L48.878605769230774,50.14881804585457L53.32211538461539,34.0021938085556L57.765625,30.289654210209846L62.20913461538462,28.87534461915493L66.65264423076924,27.166399285197258L71.09615384615385,27.667301148176193L75.53966346153847,25.427979826927185L79.98317307692308,26.518179550766945L84.4266826923077,26.076212748885155L88.8701923076923,24.986013025045395L93.31370192307693,24.95655208826065L97.75721153846155,25.339597016572952L102.20072115384616,25.92888168990612L106.64423076923077,23.336002752184868L111.08774038461539,24.927091151475906L115.53125,23.866365551948547L119.97475961538463,23.836891427636147L124.41826923076924,21.27347342669964L128.86177884615384,20.860967561602592L133.30528846153848,21.774375289678574L137.7487980769231,22.216342091560364L142.1923076923077,21.62704423069954L146.6358173076923,23.4538596868515L151.07932692307693,22.36365996301174" style="fill: none;" fill="none"></path></g><g><path stroke="rgb(204, 51, 17)" stroke-width="2px" d="M22.217548076923077,73.15999880433083L26.661057692307693,68.55800002813339L31.10456730769231,55.22399850189686L35.54807692307693,50.97600571811199L39.99158653846154,53.453994914889336L44.43509615384615,50.858003720641136L48.878605769230774,54.51599970459938L53.32211538461539,53.21800410747528L57.765625,43.423996567726135L62.20913461538462,46.3739937543869L66.65264423076924,48.8519961386919L71.09615384615385,49.088000133633614L75.53966346153847,36.69800139963627L79.98317307692308,35.99000260233879L84.4266826923077,34.80999581515789L88.8701923076923,34.45600301027298L93.31370192307693,35.99000260233879L97.75721153846155,37.406000196933746L102.20072115384616,35.872000604867935L106.64423076923077,34.21999901533127L111.08774038461539,33.630002215504646L115.53125,33.27599622309208L119.97475961538463,33.27599622309208L124.41826923076924,32.5679974257946L128.86177884615384,32.21400462090969L133.30528846153848,33.393998220562935L137.7487980769231,33.15799422562122L142.1923076923077,33.27599622309208L146.6358173076923,33.27599622309208" style="fill: none;" fill="none"></path></g><g><path stroke="rgb(0, 119, 187)" stroke-width="2px" d="M22.217548076923077,106.54414594173431L26.661057692307693,70.65621480345726L31.10456730769231,61.934682950377464L35.54807692307693,54.15600657463074L39.99158653846154,49.5595333725214L44.43509615384615,47.49700404703617L48.878605769230774,43.4603413939476L53.32211538461539,41.92818805575371L57.765625,41.279968321323395L62.20913461538462,38.51028420031071L66.65264423076924,37.30224072933197L71.09615384615385,37.47901953756809L75.53966346153847,26.164608746767044L79.98317307692308,22.746704891324043L84.4266826923077,21.244012489914894L88.8701923076923,21.56812235713005L93.31370192307693,20.21274782717228L97.75721153846155,19.623449966311455L102.20072115384616,20.536857694387436L106.64423076923077,18.798438236117363L111.08774038461539,18.297536373138428L115.53125,17.737712636590004L119.97475961538463,17.0010969042778L124.41826923076924,16.529669165611267L128.86177884615384,18.06182250380516L133.30528846153848,16.971635967493057L137.7487980769231,17.060031965374947L142.1923076923077,17.384141832590103L146.6358173076923,17.207349836826324" style="fill: none;" fill="none"></path></g><g><path stroke="rgb(255, 112, 67)" stroke-width="2px" d="M22.217548076923077,86.25799633562565L26.661057692307693,65.49000084400177L31.10456730769231,54.75200369954109L35.54807692307693,54.27999570965767L39.99158653846154,56.2860032916069L44.43509615384615,51.09399452805519L48.878605769230774,43.89600455760956L53.32211538461539,46.13800294697285L57.765625,41.41800217330456L62.20913461538462,46.72799974679947L66.65264423076924,51.3299985229969L71.09615384615385,46.846001744270325L75.53966346153847,35.75399860739708L79.98317307692308,32.80400142073631L84.4266826923077,32.449995428323746L88.8701923076923,32.449995428323746L93.31370192307693,33.040005415678024L97.75721153846155,30.44400103390217L102.20072115384616,32.5679974257946L106.64423076923077,33.040005415678024L111.08774038461539,34.45600301027298L115.53125,32.5679974257946L119.97475961538463,32.449995428323746L124.41826923076924,32.21400462090969L128.86177884615384,32.21400462090969L133.30528846153848,32.096002623438835L137.7487980769231,31.859998628497124L142.1923076923077,32.449995428323746L146.6358173076923,31.741996631026268L151.07932692307693,31.388003826141357L155.52283653846152,31.388003826141357L159.96634615384616,31.388003826141357L164.40985576923077,31.388003826141357L168.8533653846154,31.388003826141357L173.296875,31.388003826141357" style="fill: none;" fill="none"></path></g><g><path stroke="rgb(187, 187, 187)" stroke-width="2px" d="M22.217548076923077,106.2494970113039L26.661057692307693,66.79634414613247L31.10456730769231,55.71763403713703L35.54807692307693,52.29974336922169L39.99158653846154,47.05503724515438L44.43509615384615,43.077309653162956L48.878605769230774,40.101372599601746L53.32211538461539,39.305834993720055L57.765625,37.06651367247105L62.20913461538462,34.650413542985916L66.65264423076924,35.23971140384674L71.09615384615385,32.1753915399313L75.53966346153847,20.978824496269226L79.98317307692308,18.59218530356884L84.4266826923077,17.79664769768715L88.8701923076923,17.118953838944435L93.31370192307693,16.6475261002779L97.75721153846155,15.851975306868553L102.20072115384616,15.321612507104874L106.64423076923077,14.113569036126137L111.08774038461539,14.408204779028893L115.53125,14.820710644125938L119.97475961538463,14.67339277267456L124.41826923076924,13.75998504459858L128.86177884615384,13.376953303813934L133.30528846153848,12.463545575737953L137.7487980769231,12.463545575737953L142.1923076923077,12.934973314404488L146.6358173076923,12.463545575737953L151.07932692307693,11.72692984342575L155.52283653846152,12.551941573619843L159.96634615384616,12.522467449307442L164.40985576923077,11.81532584130764L168.8533653846154,12.25729264318943L173.296875,12.051039710640907" style="fill: none;" fill="none"></path></g><g><path stroke="rgb(0, 153, 136)" stroke-width="2px" d="M22.217548076923077,67.14200243353844L26.661057692307693,70.91800041496754L31.10456730769231,66.07999764382839L35.54807692307693,59.47200447320938L39.99158653846154,61.832004860043526L44.43509615384615,53.21800410747528" style="fill: none;" fill="none"></path></g><g><path stroke="rgb(238, 51, 119)" stroke-width="2px" d="M22.217548076923077,100.38603208959103L26.661057692307693,62.0525398850441L31.10456730769231,51.121160835027695L35.54807692307693,45.08090391755104L39.99158653846154,42.92997859418392L44.43509615384615,35.445964336395264" style="fill: none;" fill="none"></path></g><g><path stroke="rgb(51, 187, 238)" stroke-width="2px" d="M22.217548076923077,106.3180062174797L26.661057692307693,88.6179967224598L31.10456730769231,87.3200011253357L35.54807692307693,73.04199680685997L39.99158653846154,75.51999919116497L44.43509615384615,74.34000559151173" style="fill: none;" fill="none"></path></g><g><path stroke="rgb(204, 51, 17)" stroke-width="2px" d="M22.217548076923077,174.48961168527603L26.661057692307693,159.9340758472681L31.10456730769231,154.27687045186758L35.54807692307693,147.9714321345091L39.99158653846154,148.7669763341546L44.43509615384615,145.55533200502396" style="fill: none;" fill="none"></path></g><g><path stroke="rgb(0, 119, 187)" stroke-width="2px" d="M22.217548076923077,119.4159971550107L26.661057692307693,103.95800583064556L31.10456730769231,86.61200232803822L35.54807692307693,83.18999715149403L39.99158653846154,78.35199438035488L44.43509615384615,75.16600638628006L48.878605769230774,73.5140047967434L53.32211538461539,72.33399800956249L57.765625,71.3899952173233L62.20913461538462,72.21599601209164L66.65264423076924,71.2720064073801L71.09615384615385,69.85599562525749" style="fill: none;" fill="none"></path></g><g><path stroke="rgb(255, 112, 67)" stroke-width="2px" d="M22.217548076923077,190.42998299002647L26.661057692307693,158.93227871507406L31.10456730769231,144.4946064054966L35.54807692307693,136.9516570866108L39.99158653846154,130.97033523023129L44.43509615384615,128.40691063553095L48.878605769230774,123.92828777432442L53.32211538461539,124.13454070687294L57.765625,119.53805431723595L62.20913461538462,122.04255044460297L66.65264423076924,120.8345003798604L71.09615384615385,119.74430724978447" style="fill: none;" fill="none"></path></g><g><path stroke="rgb(187, 187, 187)" stroke-width="2px" d="M22.217548076923077,98.76599706709385L26.661057692307693,82.24599435925484L31.10456730769231,70.32800361514091L35.54807692307693,67.02400043606758L39.99158653846154,59.94399927556515L44.43509615384615,59.82599727809429L48.878605769230774,56.52199409902096L53.32211538461539,55.81399530172348L57.765625,56.04999929666519L62.20913461538462,52.863998115062714L66.65264423076924,51.21199652552605L71.09615384615385,52.155999317765236L75.53966346153847,51.802006512880325L79.98317307692308,50.621999725699425L84.4266826923077,50.858003720641136L88.8701923076923,51.566002517938614L93.31370192307693,48.49800333380699L97.75721153846155,46.96400374174118L102.20072115384616,48.26199933886528L106.64423076923077,47.31799654662609L111.08774038461539,46.3739937543869" style="fill: none;" fill="none"></path></g><g><path stroke="rgb(0, 153, 136)" stroke-width="2px" d="M22.217548076923077,158.78496084362268L26.661057692307693,113.85138139128685L31.10456730769231,99.91460435092449L35.54807692307693,90.89842356741428L39.99158653846154,86.47872917354107L44.43509615384615,83.00190344452858L48.878605769230774,78.84738385677338L53.32211538461539,79.67239558696747L57.765625,75.45895412564278L62.20913461538462,74.13304053246975L66.65264423076924,74.103579595685L71.09615384615385,75.10537013411522L75.53966346153847,72.74820506572723L79.98317307692308,71.21603854000568L84.4266826923077,70.89192867279053L88.8701923076923,71.09818160533905L93.31370192307693,71.0687206685543L97.75721153846155,71.18657760322094L102.20072115384616,67.6508168131113L106.64423076923077,69.86066401004791L111.08774038461539,69.5954892039299" style="fill: none;" fill="none"></path></g><g><path stroke="rgb(238, 51, 119)" stroke-width="2px" d="M22.217548076923077,94.51800428330898L26.661057692307693,75.75600318610668L31.10456730769231,69.50200282037258L35.54807692307693,62.65800565481186L39.99158653846154,57.70200088620186L44.43509615384615,53.8080009073019L48.878605769230774,53.68999890983105L53.32211538461539,52.155999317765236L57.765625,50.74000172317028L62.20913461538462,50.858003720641136L66.65264423076924,47.082005739212036L71.09615384615385,48.02599534392357L75.53966346153847,46.60999774932861L79.98317307692308,46.02000094950199L84.4266826923077,42.83399976789951L88.8701923076923,43.30599457025528L93.31370192307693,42.83399976789951L97.75721153846155,44.24999736249447L102.20072115384616,41.06399618089199L106.64423076923077,44.367999359965324L111.08774038461539,43.070003762841225L115.53125,44.24999736249447" style="fill: none;" fill="none"></path></g><g><path stroke="rgb(51, 187, 238)" stroke-width="2px" d="M22.217548076923077,146.557129137218L26.661057692307693,102.24230848252773L31.10456730769231,86.03676237165928L35.54807692307693,79.52506452798843L39.99158653846154,74.48661133646965L44.43509615384615,71.33389547467232L48.878605769230774,68.29903654754162L53.32211538461539,64.67489294707775L57.765625,65.47043055295944L62.20913461538462,64.2623870819807L66.65264423076924,60.63823029398918L71.09615384615385,60.932879224419594L75.53966346153847,61.19806721806526L79.98317307692308,60.07840655744076L84.4266826923077,59.31232988834381L88.8701923076923,57.16140456497669L93.31370192307693,57.544449493288994L97.75721153846155,58.72303202748299L102.20072115384616,56.3363928347826L106.64423076923077,57.39711843430996L111.08774038461539,57.86855936050415L115.53125,56.21853590011597" style="fill: none;" fill="none"></path></g><g><path stroke="rgb(204, 51, 17)" stroke-width="2px" d="M22.217548076923077,75.99199399352074L26.661057692307693,69.73799362778664L31.10456730769231,58.7640056759119L35.54807692307693,52.03799732029438L39.99158653846154,47.31799654662609L44.43509615384615,46.02000094950199L48.878605769230774,47.31799654662609L53.32211538461539,46.846001744270325L57.765625,44.957996159791946L62.20913461538462,43.18800576031208L66.65264423076924,43.89600455760956L71.09615384615385,44.24999736249447L75.53966346153847,42.126000970602036L79.98317307692308,42.126000970602036L84.4266826923077,41.889996975660324L88.8701923076923,40.0020045787096L93.31370192307693,37.99599699676037L97.75721153846155,41.889996975660324L102.20072115384616,41.77199497818947L106.64423076923077,41.65400616824627L111.08774038461539,39.647998586297035L115.53125,39.52999658882618L119.97475961538463,38.93999978899956L124.41826923076924,40.592001378536224L128.86177884615384,40.12000657618046L133.30528846153848,39.647998586297035L137.7487980769231,37.64200419187546L142.1923076923077,40.47399938106537L146.6358173076923,39.411994591355324L151.07932692307693,42.36200496554375L155.52283653846152,40.35599738359451L159.96634615384616,39.52999658882618L164.40985576923077,40.23799538612366" style="fill: none;" fill="none"></path></g><g><path stroke="rgb(0, 119, 187)" stroke-width="2px" d="M22.217548076923077,134.91859529167414L26.661057692307693,108.13523434102535L31.10456730769231,102.80213221907616L35.54807692307693,88.1287394464016L39.99158653846154,83.35547424852848L44.43509615384615,81.38134092092514L48.878605769230774,80.1732974499464L53.32211538461539,77.52147026360035L57.765625,76.10717386007309L62.20913461538462,73.39642480015755L66.65264423076924,74.33929346501827L71.09615384615385,71.80533640086651L75.53966346153847,72.15890720486641L79.98317307692308,72.09998533129692L84.4266826923077,70.56781880557537L88.8701923076923,70.39102680981159L93.31370192307693,70.98032467067242L97.75721153846155,68.35797160863876L102.20072115384616,69.47763226926327L106.64423076923077,67.59189493954182L111.08774038461539,66.88474014401436L115.53125,67.2972460091114L119.97475961538463,66.05972841382027L124.41826923076924,66.14812441170216L128.86177884615384,64.645432010293L133.30528846153848,65.0873988121748L137.7487980769231,64.38024401664734L142.1923076923077,64.40970495343208L146.6358173076923,64.82221081852913L151.07932692307693,63.90880309045315L155.52283653846152,63.1427264213562L159.96634615384616,66.44277334213257L164.40985576923077,63.05433042347431" style="fill: none;" fill="none"></path></g><g><path stroke="rgb(255, 112, 67)" stroke-width="2px" d="M22.217548076923077,135.10999906808138L26.661057692307693,118.35399895906448L31.10456730769231,110.21200619637966L35.54807692307693,104.78399343788624L39.99158653846154,101.83399625122547L44.43509615384615,98.05799826979637L48.878605769230774,96.4059966802597L53.32211538461539,90.38800030946732L57.765625,93.45599949359894L62.20913461538462,90.97799710929394L66.65264423076924,85.66799953579903L71.09615384615385,88.02799992263317L75.53966346153847,75.16600638628006L79.98317307692308,71.62599921226501L84.4266826923077,70.0919996201992L88.8701923076923,69.73799362778664L93.31370192307693,69.38400082290173L97.75721153846155,70.44600561261177L102.20072115384616,69.62000481784344L106.64423076923077,67.49599523842335L111.08774038461539,69.14799682796001L115.53125,65.72600483894348L119.97475961538463,69.26599882543087L124.41826923076924,66.55200563371181" style="fill: none;" fill="none"></path></g><g><path stroke="rgb(187, 187, 187)" stroke-width="2px" d="M22.217548076923077,149.975032992661L26.661057692307693,120.95235731452703L31.10456730769231,107.22183980047703L35.54807692307693,99.79674741625786L39.99158653846154,93.31452369689941L44.43509615384615,93.25558863580227L48.878605769230774,88.5117843747139L53.32211538461539,85.53586050868034L57.765625,82.85457238554955L62.20913461538462,82.11795665323734L66.65264423076924,79.61346052587032L71.09615384615385,78.19916412234306L75.53966346153847,63.46683628857136L79.98317307692308,57.544449493288994L84.4266826923077,55.570316165685654L88.8701923076923,54.863161370158195L93.31370192307693,53.80243577063084L97.75721153846155,52.535457238554955L102.20072115384616,52.181886434555054L106.64423076923077,50.44346697628498L111.08774038461539,50.85597284138203L115.53125,50.00150017440319L119.97475961538463,49.26488444209099L124.41826923076924,51.091686710715294" style="fill: none;" fill="none"></path></g><g><path stroke="rgb(0, 153, 136)" stroke-width="2px" d="M22.217548076923077,71.03600241243839L26.661057692307693,73.63199360668659L31.10456730769231,55.22399850189686L35.54807692307693,58.99999648332596L39.99158653846154,54.27999570965767L44.43509615384615,53.33600610494614L48.878605769230774,54.634001702070236L53.32211538461539,47.5540005415678L57.765625,42.83399976789951L62.20913461538462,48.02599534392357L66.65264423076924,46.13800294697285L71.09615384615385,46.72799974679947L75.53966346153847,37.05199420452118L79.98317307692308,35.872000604867935L84.4266826923077,36.816003397107124" style="fill: none;" fill="none"></path></g><g><path stroke="rgb(238, 51, 119)" stroke-width="2px" d="M22.217548076923077,104.92359660565853L26.661057692307693,62.759694680571556L31.10456730769231,54.09708470106125L35.54807692307693,47.82111391425133L39.99158653846154,38.9522510021925L44.43509615384615,38.80493313074112L48.878605769230774,35.38702927529812L53.32211538461539,32.02806048095226L57.765625,32.44056634604931L62.20913461538462,25.693167820572853L66.65264423076924,28.37445594370365L71.09615384615385,27.51997008919716L75.53966346153847,14.143029972910881L79.98317307692308,10.253698378801346L84.4266826923077,9.340290650725365" style="fill: none;" fill="none"></path></g><g><path stroke="rgb(51, 187, 238)" stroke-width="2px" d="M22.217548076923077,136.05400186032057L26.661057692307693,107.26199582219124L31.10456730769231,104.78399343788624" style="fill: none;" fill="none"></path></g><g><path stroke="rgb(204, 51, 17)" stroke-width="2px" d="M22.217548076923077,171.1895713582635L26.661057692307693,144.31782100349665L31.10456730769231,131.20605569332838" style="fill: none;" fill="none"></path></g><g><path stroke="rgb(0, 119, 187)" stroke-width="2px" d="M22.217548076923077,80.1219979673624L26.661057692307693,85.19600473344326L31.10456730769231,72.80600599944592L35.54807692307693,61.47799886763096L39.99158653846154,58.99999648332596L44.43509615384615,56.99400208890438" style="fill: none;" fill="none"></path></g><g><path stroke="rgb(255, 112, 67)" stroke-width="2px" d="M22.217548076923077,157.60637171566486L26.661057692307693,136.06771688908339L31.10456730769231,129.20245483517647L35.54807692307693,123.33898991346359L39.99158653846154,119.06661998480558L44.43509615384615,116.38533845543861" style="fill: none;" fill="none"></path></g><g><path stroke="rgb(51, 187, 238)" stroke-width="2px" d="M22.217548076923077,67.02400043606758L26.661057692307693,58.173995688557625L31.10456730769231,60.53399607539177L35.54807692307693,60.53399607539177L39.99158653846154,63.01199845969677L44.43509615384615,56.52199409902096L48.878605769230774,58.05599369108677L53.32211538461539,51.68400451540947L57.765625,51.802006512880325L62.20913461538462,43.423996567726135L66.65264423076924,46.49199575185776L71.09615384615385,50.50399772822857L75.53966346153847,50.26799373328686L79.98317307692308,37.28799819946289L84.4266826923077,36.10800459980965L88.8701923076923,34.691993817687035L93.31370192307693,35.635996609926224L97.75721153846155,33.7480042129755L102.20072115384616,35.28200380504131L106.64423076923077,36.57999940216541L111.08774038461539,33.393998220562935L115.53125,33.630002215504646L119.97475961538463,34.338001012802124L124.41826923076924,34.21999901533127L128.86177884615384,34.927997812628746L133.30528846153848,33.27599622309208L137.7487980769231,33.393998220562935L142.1923076923077,32.80400142073631L146.6358173076923,31.741996631026268L151.07932692307693,31.859998628497124L155.52283653846152,31.859998628497124L159.96634615384616,31.741996631026268L164.40985576923077,31.741996631026268" style="fill: none;" fill="none"></path></g><g><path stroke="rgb(204, 51, 17)" stroke-width="2px" d="M22.217548076923077,112.26028639823198L26.661057692307693,78.05183306336403L31.10456730769231,65.70615760982037L35.54807692307693,59.04714189469814L39.99158653846154,53.74351389706135L44.43509615384615,52.06402949988842L48.878605769230774,47.438068985939026L53.32211538461539,46.37734338641167L57.765625,43.8433863222599L62.20913461538462,43.19516658782959L66.65264423076924,37.685272470116615L71.09615384615385,40.278164595365524L75.53966346153847,38.9817251265049L79.98317307692308,27.54944421350956L84.4266826923077,22.510991021990776L88.8701923076923,22.334199026226997L93.31370192307693,20.890428498387337L97.75721153846155,19.74130690097809L102.20072115384616,20.18327370285988L106.64423076923077,19.034165292978287L111.08774038461539,19.15202222764492L115.53125,17.35468089580536L119.97475961538463,17.295745834708214L124.41826923076924,16.588591039180756L128.86177884615384,17.08949290215969L133.30528846153848,18.356471434235573L137.7487980769231,16.70644797384739L142.1923076923077,15.20375557243824L146.6358173076923,15.321612507104874L151.07932692307693,14.67339277267456L155.52283653846152,16.17608517408371L159.96634615384616,15.675183311104774L164.40985576923077,15.704657435417175" style="fill: none;" fill="none"></path></g><g><path stroke="rgb(0, 119, 187)" stroke-width="2px" d="M22.217548076923077,82.6000003516674L26.661057692307693,71.74400120973587L31.10456730769231,69.02999483048916L35.54807692307693,52.5100053101778L39.99158653846154,51.802006512880325L44.43509615384615,51.09399452805519" style="fill: none;" fill="none"></path></g><g><path stroke="rgb(255, 112, 67)" stroke-width="2px" d="M22.217548076923077,144.5535348728299L26.661057692307693,119.09608751535416L31.10456730769231,112.5549353286624L35.54807692307693,103.03785927593708L39.99158653846154,100.26817515492439L44.43509615384615,98.64762581884861" style="fill: none;" fill="none"></path></g><g><path stroke="rgb(187, 187, 187)" stroke-width="2px" d="M22.217548076923077,77.52599358558655L26.661057692307693,65.37199884653091L31.10456730769231,66.90599843859673L35.54807692307693,64.66400004923344L39.99158653846154,48.26199933886528L44.43509615384615,45.0759981572628L48.878605769230774,44.48600135743618L53.32211538461539,43.66000056266785L57.765625,42.5979957729578L62.20913461538462,40.12000657618046L66.65264423076924,40.12000657618046L71.09615384615385,41.889996975660324L75.53966346153847,40.12000657618046L79.98317307692308,39.17600378394127L84.4266826923077,38.8219977915287L88.8701923076923,41.53600417077541L93.31370192307693,39.88400258123875L97.75721153846155,38.93999978899956L102.20072115384616,38.113998994231224L106.64423076923077,37.76000618934631L111.08774038461539,40.12000657618046" style="fill: none;" fill="none"></path></g><g><path stroke="rgb(0, 153, 136)" stroke-width="2px" d="M22.217548076923077,125.13633783906698L26.661057692307693,95.7011628895998L31.10456730769231,89.83769796788692L35.54807692307693,82.11795665323734L39.99158653846154,71.45175240933895L44.43509615384615,68.79993841052055L48.878605769230774,64.7043538838625L53.32211538461539,63.790946155786514L57.765625,63.93827721476555L62.20913461538462,62.465045750141144L66.65264423076924,60.07840655744076L71.09615384615385,57.04354763031006L75.53966346153847,60.37305548787117L79.98317307692308,57.63284549117088L84.4266826923077,57.809624299407005L88.8701923076923,58.31052616238594L93.31370192307693,55.923886969685555L97.75721153846155,54.56851243972778L102.20072115384616,55.570316165685654L106.64423076923077,54.00868870317936L111.08774038461539,53.3310080319643" style="fill: none;" fill="none"></path></g><g><path stroke="rgb(238, 51, 119)" stroke-width="2px" d="M22.217548076923077,82.83600434660912L26.661057692307693,73.39600279927254L31.10456730769231,66.19799964129925L35.54807692307693,58.52800168097019" style="fill: none;" fill="none"></path></g><g><path stroke="rgb(51, 187, 238)" stroke-width="2px" d="M22.217548076923077,149.62145559489727L26.661057692307693,127.75869090110064L31.10456730769231,119.77376818656921L35.54807692307693,109.2843559384346" style="fill: none;" fill="none"></path></g><g><path stroke="rgb(255, 112, 67)" stroke-width="2px" d="M22.217548076923077,83.30799914896488L26.661057692307693,60.062001273036L31.10456730769231,58.64600367844105L35.54807692307693,53.453994914889336L39.99158653846154,52.5100053101778L44.43509615384615,54.51599970459938L48.878605769230774,48.8519961386919L53.32211538461539,44.604003354907036L57.765625,48.73399414122105L62.20913461538462,50.0320029258728L66.65264423076924,44.24999736249447L71.09615384615385,48.02599534392357L75.53966346153847,40.35599738359451L79.98317307692308,45.901998952031136L84.4266826923077,40.71000337600708L88.8701923076923,45.548006147146225L93.31370192307693,46.3739937543869L97.75721153846155,42.5979957729578L102.20072115384616,34.338001012802124L106.64423076923077,34.10199701786041L111.08774038461539,33.7480042129755L115.53125,32.449995428323746L119.97475961538463,33.393998220562935L124.41826923076924,33.98399502038956L128.86177884615384,34.45600301027298L133.30528846153848,33.393998220562935L137.7487980769231,31.03399783372879L142.1923076923077,33.15799422562122L146.6358173076923,32.68599942326546L151.07932692307693,32.68599942326546L155.52283653846152,32.5679974257946L159.96634615384616,32.21400462090969L164.40985576923077,31.859998628497124L168.8533653846154,31.859998628497124L173.296875,31.388003826141357" style="fill: none;" fill="none"></path></g><g><path stroke="rgb(187, 187, 187)" stroke-width="2px" d="M22.217548076923077,99.8262083530426L26.661057692307693,62.907012552022934L31.10456730769231,51.79884150624275L35.54807692307693,45.051442980766296L39.99158653846154,37.95046046376228L44.43509615384615,37.47901953756809L48.878605769230774,34.12005074322224L53.32211538461539,30.908413007855415L57.765625,30.289654210209846L62.20913461538462,26.19406968355179L66.65264423076924,25.457453951239586L71.09615384615385,25.39851889014244L75.53966346153847,24.278871417045593L79.98317307692308,23.041353821754456L84.4266826923077,21.744901165366173L88.8701923076923,20.360065698623657L93.31370192307693,22.422595024108887L97.75721153846155,21.744901165366173L102.20072115384616,11.28496304154396L106.64423076923077,8.33850011229515L111.08774038461539,6.89472958445549L115.53125,7.542949318885803L119.97475961538463,6.246509850025177L124.41826923076924,6.806333586573601L128.86177884615384,6.158113852143288L133.30528846153848,5.303641185164452L137.7487980769231,6.364366784691811L142.1923076923077,4.832200258970261L146.6358173076923,5.2447061240673065L151.07932692307693,5.686672925949097L155.52283653846152,4.92059625685215L159.96634615384616,3.859870657324791L164.40985576923077,4.066123589873314L168.8533653846154,4.419694393873215L173.296875,4.625947326421738" style="fill: none;" fill="none"></path></g><g><path stroke="rgb(238, 51, 119)" stroke-width="2px" d="M22.217548076923077,64.54599805176258L26.661057692307693,59.59000647068024L31.10456730769231,48.61600533127785L35.54807692307693,47.31799654662609L39.99158653846154,46.60999774932861L44.43509615384615,42.126000970602036L48.878605769230774,40.71000337600708L53.32211538461539,40.592001378536224L57.765625,43.66000056266785L62.20913461538462,48.49800333380699L66.65264423076924,39.05800178647041L71.09615384615385,38.113998994231224L75.53966346153847,33.7480042129755L79.98317307692308,34.338001012802124" style="fill: none;" fill="none"></path></g><g><path stroke="rgb(51, 187, 238)" stroke-width="2px" d="M22.217548076923077,108.87185007333755L26.661057692307693,57.24980056285858L31.10456730769231,42.075505927205086L35.54807692307693,34.79774460196495L39.99158653846154,32.26378753781319L44.43509615384615,28.669091686606407L48.878605769230774,26.282465681433678L53.32211538461539,23.54225568473339L57.765625,21.685979291796684L62.20913461538462,18.651120364665985L66.65264423076924,17.060031965374947L71.09615384615385,17.855569571256638L75.53966346153847,12.25729264318943L79.98317307692308,10.901918113231659" style="fill: none;" fill="none"></path></g><g><path stroke="rgb(204, 51, 17)" stroke-width="2px" d="M22.217548076923077,64.78200204670429L26.661057692307693,54.98799450695515L31.10456730769231,50.15000492334366L35.54807692307693,46.3739937543869L39.99158653846154,46.72799974679947L44.43509615384615,46.60999774932861L48.878605769230774,39.88400258123875L53.32211538461539,43.7780025601387L57.765625,40.71000337600708L62.20913461538462,35.75399860739708L66.65264423076924,34.927997812628746L71.09615384615385,32.33199343085289L75.53966346153847,31.2700018286705L79.98317307692308,32.096002623438835L84.4266826923077,31.97800062596798L88.8701923076923,30.68000502884388L93.31370192307693,30.562003031373024L97.75721153846155,30.68000502884388L102.20072115384616,30.44400103390217L106.64423076923077,30.325999036431313L111.08774038461539,29.854004234075546L115.53125,30.915995836257935L119.97475961538463,30.915995836257935L124.41826923076924,30.915995836257935L128.86177884615384,30.915995836257935" style="fill: none;" fill="none"></path></g><g><path stroke="rgb(0, 119, 187)" stroke-width="2px" d="M22.217548076923077,111.14063233137131L26.661057692307693,58.04535135626793L31.10456730769231,44.580002054572105L35.54807692307693,37.09598779678345L39.99158653846154,30.378050208091736L44.43509615384615,27.01908141374588L48.878605769230774,23.660112619400024L53.32211538461539,22.62884795665741L57.765625,21.774375289678574L62.20913461538462,13.524271175265312L66.65264423076924,11.314423978328705L71.09615384615385,10.872457176446915L75.53966346153847,10.165302380919456L79.98317307692308,9.340290650725365L84.4266826923077,9.605478644371033L88.8701923076923,9.251894652843475L93.31370192307693,8.986719846725464L97.75721153846155,7.808124125003815L102.20072115384616,8.515278920531273L106.64423076923077,7.3661573231220245L111.08774038461539,8.191169053316116L115.53125,8.073312118649483L119.97475961538463,8.30902598798275L124.41826923076924,7.719741314649582L128.86177884615384,8.250104114413261" style="fill: none;" fill="none"></path></g><g><path stroke="rgb(255, 112, 67)" stroke-width="2px" d="M22.217548076923077,96.4059966802597L26.661057692307693,71.3899952173233L31.10456730769231,77.76199758052826L35.54807692307693,56.639996096491814L39.99158653846154,53.453994914889336L44.43509615384615,53.100002110004425L48.878605769230774,51.802006512880325L53.32211538461539,48.380001336336136L57.765625,47.67200253903866L62.20913461538462,48.96999813616276L66.65264423076924,46.846001744270325L71.09615384615385,46.60999774932861L75.53966346153847,46.49199575185776L79.98317307692308,48.49800333380699L84.4266826923077,47.082005739212036L88.8701923076923,45.43000414967537L93.31370192307693,45.548006147146225L97.75721153846155,45.43000414967537L102.20072115384616,44.13199536502361L106.64423076923077,47.43599854409695L111.08774038461539,46.3739937543869L115.53125,42.95200176537037L119.97475961538463,45.19400015473366L124.41826923076924,44.48600135743618L128.86177884615384,41.65400616824627L133.30528846153848,42.83399976789951L137.7487980769231,41.06399618089199L142.1923076923077,44.014006555080414L146.6358173076923,39.88400258123875L151.07932692307693,40.35599738359451L155.52283653846152,41.77199497818947L159.96634615384616,42.83399976789951L164.40985576923077,41.53600417077541L168.8533653846154,41.65400616824627L173.296875,40.71000337600708L177.7403846153846,38.93999978899956L182.18389423076923,40.0020045787096L186.62740384615387,40.12000657618046L191.07091346153845,40.0020045787096L195.5144230769231,39.647998586297035L199.95793269230768,39.88400258123875L204.40144230769232,39.76600058376789L208.8449519230769,39.88400258123875L213.28846153846155,39.88400258123875L217.73197115384616,39.88400258123875L222.17548076923077,39.88400258123875L226.6189903846154,39.88400258123875L231.0625,39.88400258123875L235.5060096153846,39.88400258123875L239.94951923076925,39.88400258123875L244.39302884615384,39.88400258123875L248.83653846153848,39.88400258123875L253.28004807692307,39.88400258123875L257.7235576923077,39.88400258123875L262.1670673076923,39.88400258123875" style="fill: none;" fill="none"></path></g><g><path stroke="rgb(187, 187, 187)" stroke-width="2px" d="M22.217548076923077,144.7303268685937L26.661057692307693,120.53985144942999L31.10456730769231,113.32101199775934L35.54807692307693,100.09139634668827L39.99158653846154,97.2333162277937L44.43509615384615,98.23511995375156L48.878605769230774,94.87615115940571L53.32211538461539,92.99041382968426L57.765625,90.4564567655325L62.20913461538462,88.01088251173496L66.65264423076924,89.69036690890789L71.09615384615385,87.24480584263802L75.53966346153847,87.15640984475613L79.98317307692308,83.23761731386185L84.4266826923077,84.06262904405594L88.8701923076923,83.62064905464649L93.31370192307693,83.09028625488281L97.75721153846155,80.6152642518282L102.20072115384616,80.46793319284916L106.64423076923077,81.55813291668892L111.08774038461539,81.94116465747356L115.53125,79.55453865230083L119.97475961538463,80.08490145206451L124.41826923076924,78.96524079144001L128.86177884615384,76.78485453128815L133.30528846153848,79.17149372398853L137.7487980769231,76.93218559026718L142.1923076923077,79.31881159543991L146.6358173076923,77.22682133316994L151.07932692307693,75.48841506242752L155.52283653846152,76.66699759662151L159.96634615384616,78.61166998744011L164.40985576923077,76.78485453128815L168.8533653846154,75.98931692540646L173.296875,74.48661133646965L177.7403846153846,76.81432865560055L182.18389423076923,76.49020560085773L186.62740384615387,74.25089746713638L191.07091346153845,74.0741054713726L195.5144230769231,73.13123680651188L199.95793269230768,75.31162306666374L204.40144230769232,75.78306399285793L208.8449519230769,75.45895412564278L213.28846153846155,74.33929346501827L217.73197115384616,76.43128372728825L222.17548076923077,73.42588573694229L226.6189903846154,75.13484425842762L231.0625,74.04464453458786L235.5060096153846,74.0741054713726L239.94951923076925,73.69107373058796L244.39302884615384,74.36875440180302L248.83653846153848,74.78126026690006L253.28004807692307,75.34109719097614L257.7235576923077,74.30983252823353L262.1670673076923,76.87325052917004" style="fill: none;" fill="none"></path></g><g><path stroke="rgb(0, 119, 187)" stroke-width="2px" d="M22.217548076923077,75.75600318610668L26.661057692307693,57.583998888731L31.10456730769231,49.79599893093109L35.54807692307693,44.83999416232109L39.99158653846154,44.367999359965324L44.43509615384615,45.31200215220451L48.878605769230774,38.58599379658699L53.32211538461539,46.49199575185776L57.765625,44.367999359965324" style="fill: none;" fill="none"></path></g><g><path stroke="rgb(255, 112, 67)" stroke-width="2px" d="M22.217548076923077,74.93000239133835L26.661057692307693,51.68400451540947L31.10456730769231,50.0320029258728L35.54807692307693,46.49199575185776L39.99158653846154,43.070003762841225L44.43509615384615,41.06399618089199L48.878605769230774,43.7780025601387L53.32211538461539,41.181998178362846L57.765625,45.19400015473366L62.20913461538462,41.77199497818947L66.65264423076924,37.87799499928951L71.09615384615385,41.06399618089199L75.53966346153847,38.8219977915287L79.98317307692308,38.113998994231224L84.4266826923077,34.927997812628746L88.8701923076923,34.21999901533127L93.31370192307693,32.68599942326546L97.75721153846155,33.040005415678024L102.20072115384616,32.80400142073631L106.64423076923077,31.741996631026268L111.08774038461539,31.388003826141357L115.53125,31.97800062596798L119.97475961538463,32.21400462090969L124.41826923076924,31.97800062596798L128.86177884615384,32.096002623438835L133.30528846153848,32.096002623438835L137.7487980769231,32.096002623438835" style="fill: none;" fill="none"></path></g><g><path stroke="rgb(187, 187, 187)" stroke-width="2px" d="M22.217548076923077,122.04255044460297L26.661057692307693,73.48482079803944L31.10456730769231,54.951557368040085L35.54807692307693,50.207753106951714L39.99158653846154,40.30762553215027L44.43509615384615,39.07012112438679L48.878605769230774,34.41469967365265L53.32211538461539,33.236117139458656L57.765625,30.672699138522148L62.20913461538462,28.99321474134922L66.65264423076924,28.020871952176094L71.09615384615385,25.192265957593918L75.53966346153847,24.750299155712128L79.98317307692308,24.750299155712128L84.4266826923077,21.00828543305397L88.8701923076923,17.855569571256638L93.31370192307693,15.851975306868553L97.75721153846155,16.35287716984749L102.20072115384616,15.233216509222984L106.64423076923077,15.704657435417175L111.08774038461539,14.791249707341194L115.53125,14.791249707341194L119.97475961538463,14.643931835889816L124.41826923076924,14.349282905459404L128.86177884615384,13.966237977147102L133.30528846153848,15.439469441771507L137.7487980769231,14.968041703104973" style="fill: none;" fill="none"></path></g><g><path stroke="rgb(0, 153, 136)" stroke-width="2px" d="M22.217548076923077,65.25399684906006L26.661057692307693,56.639996096491814L31.10456730769231,52.627994120121L35.54807692307693,54.75200369954109L39.99158653846154,46.72799974679947L44.43509615384615,56.639996096491814L48.878605769230774,45.31200215220451L53.32211538461539,38.46800498664379L57.765625,41.889996975660324L62.20913461538462,40.828005373477936L66.65264423076924,47.082005739212036L71.09615384615385,32.5679974257946L75.53966346153847,32.68599942326546L79.98317307692308,31.2700018286705L84.4266826923077,30.325999036431313L88.8701923076923,31.741996631026268L93.31370192307693,31.97800062596798" style="fill: none;" fill="none"></path></g><g><path stroke="rgb(238, 51, 119)" stroke-width="2px" d="M22.217548076923077,106.69146381318569L26.661057692307693,48.85237857699394L31.10456730769231,36.624546870589256L35.54807692307693,28.698565810918808L39.99158653846154,24.013683423399925L44.43509615384615,22.393134087324142L48.878605769230774,19.59398902952671L53.32211538461539,17.325206771492958L57.765625,16.293942108750343L62.20913461538462,16.35287716984749L66.65264423076924,14.85018476843834L71.09615384615385,8.692070916295052L75.53966346153847,6.570619717240334L79.98317307692308,5.156310126185417L84.4266826923077,6.069717854261398L88.8701923076923,5.7161470502614975L93.31370192307693,4.714343324303627" style="fill: none;" fill="none"></path></g><g><path stroke="rgb(51, 187, 238)" stroke-width="2px" d="M22.217548076923077,68.08600522577763L26.661057692307693,54.87000569701195L31.10456730769231,58.52800168097019L35.54807692307693,52.627994120121L39.99158653846154,49.91400092840195" style="fill: none;" fill="none"></path></g><g><path stroke="rgb(204, 51, 17)" stroke-width="2px" d="M22.217548076923077,99.41370248794556L26.661057692307693,37.92099952697754L31.10456730769231,22.835100889205933L35.54807692307693,20.65471462905407L39.99158653846154,17.61985570192337" style="fill: none;" fill="none"></path></g><g><path stroke="rgb(0, 119, 187)" stroke-width="2px" d="M22.217548076923077,124.72600132226944L26.661057692307693,114.69600297510624L31.10456730769231,109.15000140666962L35.54807692307693,91.92199990153313L39.99158653846154,88.49999472498894L44.43509615384615,88.73599871993065L48.878605769230774,82.01000355184078L53.32211538461539,79.53200116753578L57.765625,79.41399917006493L62.20913461538462,84.72399674355984L66.65264423076924,75.63800118863583" style="fill: none;" fill="none"></path></g><g><path stroke="rgb(255, 112, 67)" stroke-width="2px" d="M22.217548076923077,150.29914285987616L26.661057692307693,110.25668554008007L31.10456730769231,94.1395354270935L35.54807692307693,85.68317838013172L39.99158653846154,77.8750542551279L44.43509615384615,72.12944626808167L48.878605769230774,67.32670694589615L53.32211538461539,66.05972841382027L57.765625,60.43197736144066L62.20913461538462,57.721228301525116L66.65264423076924,56.68997682631016" style="fill: none;" fill="none"></path></g><g><path stroke="rgb(187, 187, 187)" stroke-width="2px" d="M22.217548076923077,128.50199930369854Z" style="fill: none;" fill="none"></path></g><g><path stroke="rgb(0, 153, 136)" stroke-width="2px" d="M22.217548076923077,150.29914285987616Z" style="fill: none;" fill="none"></path></g><g><path stroke="rgb(238, 51, 119)" stroke-width="2px" d="M22.217548076923077,126.02399691939354L26.661057692307693,102.3060042411089L31.10456730769231,109.03199940919876L35.54807692307693,100.1819946616888L39.99158653846154,93.5740014910698L44.43509615384615,98.647995069623L48.878605769230774,94.28200028836727" style="fill: none;" fill="none"></path></g><g><path stroke="rgb(51, 187, 238)" stroke-width="2px" d="M22.217548076923077,149.06162526458502L26.661057692307693,117.91749838739634L31.10456730769231,107.66380660235882L35.54807692307693,101.59408874809742L39.99158653846154,93.16720582544804L44.43509615384615,94.4931062310934L48.878605769230774,88.95375117659569" style="fill: none;" fill="none"></path></g><g><path stroke="rgb(204, 51, 17)" stroke-width="2px" d="M22.217548076923077,111.3919997960329L26.661057692307693,103.603999838233L31.10456730769231,83.07199515402317L35.54807692307693,73.74999560415745L39.99158653846154,75.0480043888092L44.43509615384615,74.81200039386749L48.878605769230774,72.5700020045042L53.32211538461539,80.82999676465988L57.765625,67.14200243353844L62.20913461538462,73.63199360668659L66.65264423076924,54.634001702070236L71.09615384615385,81.0660007596016L75.53966346153847,66.43400363624096L79.98317307692308,67.37800642848015L84.4266826923077,52.863998115062714L88.8701923076923,49.20600213110447L93.31370192307693,46.60999774932861L97.75721153846155,47.5540005415678L102.20072115384616,48.73399414122105L106.64423076923077,46.96400374174118L111.08774038461539,48.8519961386919L115.53125,44.48600135743618L119.97475961538463,46.2560049444437L124.41826923076924,45.31200215220451L128.86177884615384,44.367999359965324L133.30528846153848,44.367999359965324L137.7487980769231,43.423996567726135L142.1923076923077,43.423996567726135L146.6358173076923,44.72200535237789L151.07932692307693,45.19400015473366L155.52283653846152,42.95200176537037L159.96634615384616,42.479993775486946L164.40985576923077,42.00799897313118L168.8533653846154,42.36200496554375L173.296875,42.36200496554375L177.7403846153846,42.36200496554375L182.18389423076923,42.36200496554375L186.62740384615387,42.36200496554375L191.07091346153845,42.36200496554375L195.5144230769231,42.36200496554375L199.95793269230768,42.36200496554375" style="fill: none;" fill="none"></path></g><g><path stroke="rgb(0, 119, 187)" stroke-width="2px" d="M22.217548076923077,143.1686994060874L26.661057692307693,95.99579863250256L31.10456730769231,84.76977065205574L35.54807692307693,71.33389547467232L39.99158653846154,64.645432010293L44.43509615384615,61.05073615908623L48.878605769230774,55.393524169921875L53.32211538461539,53.448864966630936L57.765625,50.38454510271549L62.20913461538462,45.729123651981354L66.65264423076924,42.694264724850655L71.09615384615385,39.394230991601944L75.53966346153847,39.60048392415047L79.98317307692308,39.24689993262291L84.4266826923077,29.140532612800598L88.8701923076923,24.750299155712128L93.31370192307693,23.89582648873329L97.75721153846155,21.155616492033005L102.20072115384616,20.006494894623756L106.64423076923077,19.918098896741867L111.08774038461539,18.32701049745083L115.53125,17.914504632353783L119.97475961538463,17.118953838944435L124.41826923076924,16.146624237298965L128.86177884615384,15.55732637643814L133.30528846153848,16.028767302632332L137.7487980769231,15.498404502868652L142.1923076923077,13.78945916891098L146.6358173076923,13.376953303813934L151.07932692307693,14.732314646244049L155.52283653846152,13.553732112050056L159.96634615384616,13.347479179501534L164.40985576923077,12.198357582092285L168.8533653846154,12.286753579974174L173.296875,12.375149577856064L177.7403846153846,10.990314111113548L182.18389423076923,11.72692984342575L186.62740384615387,11.874247714877129L191.07091346153845,12.021578773856163L195.5144230769231,11.72692984342575L199.95793269230768,11.667994782328606" style="fill: none;" fill="none"></path></g><g><path stroke="rgb(238, 51, 119)" stroke-width="2px" d="M22.217548076923077,111.03800039738417L26.661057692307693,97.82199427485466L31.10456730769231,88.02799992263317L35.54807692307693,80.94799876213074L39.99158653846154,74.93000239133835L44.43509615384615,73.63199360668659L48.878605769230774,69.26599882543087L53.32211538461539,68.91200602054596L57.765625,66.19799964129925L62.20913461538462,74.34000559151173L66.65264423076924,55.81399530172348L71.09615384615385,52.155999317765236L75.53966346153847,50.50399772822857L79.98317307692308,48.73399414122105L84.4266826923077,47.790004536509514L88.8701923076923,46.60999774932861L93.31370192307693,47.5540005415678L97.75721153846155,46.2560049444437L102.20072115384616,46.72799974679947L106.64423076923077,46.13800294697285L111.08774038461539,45.78399695456028L115.53125,46.13800294697285L119.97475961538463,45.548006147146225L124.41826923076924,45.665994957089424L128.86177884615384,45.665994957089424L133.30528846153848,45.78399695456028L137.7487980769231,45.665994957089424L142.1923076923077,45.665994957089424L146.6358173076923,45.665994957089424L151.07932692307693,45.665994957089424L155.52283653846152,45.548006147146225L159.96634615384616,45.548006147146225L164.40985576923077,45.548006147146225L168.8533653846154,45.548006147146225" style="fill: none;" fill="none"></path></g><g><path stroke="rgb(51, 187, 238)" stroke-width="2px" d="M22.217548076923077,145.55533200502396L26.661057692307693,103.47982607781887L31.10456730769231,86.80283904075623L35.54807692307693,77.5804053246975L39.99158653846154,71.65800534188747L44.43509615384615,60.873957350850105L48.878605769230774,59.84269268810749L53.32211538461539,53.71403977274895L57.765625,54.98101830482483L62.20913461538462,53.448864966630936L66.65264423076924,40.366560593247414L71.09615384615385,35.917405262589455L75.53966346153847,31.91020354628563L79.98317307692308,30.996809005737305L84.4266826923077,31.82180754840374L88.8701923076923,28.580708876252174L93.31370192307693,28.403916880488396L97.75721153846155,25.31012289226055L102.20072115384616,26.19406968355179L106.64423076923077,26.282465681433678L111.08774038461539,23.719034492969513L115.53125,23.925287425518036L119.97475961538463,23.041353821754456L124.41826923076924,23.15921075642109L128.86177884615384,23.630638495087624L133.30528846153848,23.68957355618477L137.7487980769231,22.422595024108887L142.1923076923077,22.569912895560265L146.6358173076923,22.481516897678375L151.07932692307693,22.599387019872665L155.52283653846152,24.485124349594116L159.96634615384616,22.599387019872665L164.40985576923077,23.041353821754456L168.8533653846154,24.102079421281815" style="fill: none;" fill="none"></path></g><g><path stroke="rgb(204, 51, 17)" stroke-width="2px" d="M22.217548076923077,108.6779934167862L26.661057692307693,113.51600278168917L31.10456730769231,77.2900027781725L35.54807692307693,82.95400634407997L39.99158653846154,84.25200194120407L44.43509615384615,70.44600561261177L48.878605769230774,68.55800002813339L53.32211538461539,74.81200039386749L57.765625,60.062001273036L62.20913461538462,57.11200408637524L66.65264423076924,73.5140047967434L71.09615384615385,56.16800129413605L75.53966346153847,64.54599805176258L79.98317307692308,51.919995322823524L84.4266826923077,48.61600533127785L88.8701923076923,48.49800333380699L93.31370192307693,45.665994957089424L97.75721153846155,46.3739937543869L102.20072115384616,46.2560049444437L106.64423076923077,45.19400015473366L111.08774038461539,46.846001744270325L115.53125,45.665994957089424L119.97475961538463,44.72200535237789L124.41826923076924,43.89600455760956L128.86177884615384,45.19400015473366L133.30528846153848,44.367999359965324L137.7487980769231,43.423996567726135L142.1923076923077,45.901998952031136L146.6358173076923,43.7780025601387L151.07932692307693,43.30599457025528L155.52283653846152,43.30599457025528L159.96634615384616,42.5979957729578L164.40985576923077,41.889996975660324L168.8533653846154,42.00799897313118L173.296875,42.126000970602036L177.7403846153846,42.00799897313118L182.18389423076923,42.24400296807289L186.62740384615387,41.77199497818947L191.07091346153845,41.889996975660324L195.5144230769231,41.65400616824627L199.95793269230768,41.77199497818947L204.40144230769232,41.65400616824627L208.8449519230769,41.77199497818947L213.28846153846155,41.77199497818947L217.73197115384616,41.77199497818947" style="fill: none;" fill="none"></path></g><g><path stroke="rgb(0, 119, 187)" stroke-width="2px" d="M22.217548076923077,147.70625073462725L26.661057692307693,110.8459834009409L31.10456730769231,93.52077662944794L35.54807692307693,83.79744105041027L39.99158653846154,77.90451519191265L44.43509615384615,73.66159960627556L48.878605769230774,68.26957561075687L53.32211538461539,65.67668348550797L57.765625,61.52217708528042L62.20913461538462,60.402516424655914L66.65264423076924,56.60158082842827L71.09615384615385,57.456053495407104L75.53966346153847,54.067623764276505L79.98317307692308,47.73271791636944L84.4266826923077,42.605868726968765L88.8701923076923,39.836197793483734L93.31370192307693,38.45136232674122L97.75721153846155,37.97992140054703L102.20072115384616,35.740613266825676L106.64423076923077,35.65221726894379L111.08774038461539,33.67808394134045L115.53125,33.412909135222435L119.97475961538463,33.766479939222336L124.41826923076924,33.11826020479202L128.86177884615384,33.236117139458656L133.30528846153848,32.67629340291023L137.7487980769231,31.438775807619095L142.1923076923077,32.5289623439312L146.6358173076923,31.82180754840374L151.07932692307693,31.32091887295246L155.52283653846152,31.02626994252205L159.96634615384616,30.878938883543015L164.40985576923077,30.93787394464016L168.8533653846154,30.260193273425102L173.296875,29.111071676015854L177.7403846153846,29.93607021868229L182.18389423076923,27.961950078606606L186.62740384615387,27.961950078606606L191.07091346153845,29.40570741891861L195.5144230769231,28.757487684488297L199.95793269230768,30.02446621656418L204.40144230769232,31.055730879306793L208.8449519230769,29.25838954746723L213.28846153846155,28.462838754057884L217.73197115384616,29.199454486370087" style="fill: none;" fill="none"></path></g><g><path stroke="rgb(255, 112, 67)" stroke-width="2px" d="M22.217548076923077,121.8939995393157L26.661057692307693,100.1819946616888L31.10456730769231,103.24999384582043L35.54807692307693,91.3320031017065L39.99158653846154,76.10999599099159L44.43509615384615,71.98000520467758L48.878605769230774,68.91200602054596L53.32211538461539,67.49599523842335L57.765625,65.72600483894348L62.20913461538462,64.54599805176258L66.65264423076924,65.25399684906006L71.09615384615385,64.90000404417515L75.53966346153847,62.65800565481186L79.98317307692308,63.60199525952339L84.4266826923077,61.3599968701601L88.8701923076923,61.12400606274605L93.31370192307693,63.24800245463848L97.75721153846155,62.65800565481186L102.20072115384616,63.8379992544651L106.64423076923077,65.37199884653091L111.08774038461539,65.018006041646L115.53125,59.707995280623436L119.97475961538463,63.60199525952339L124.41826923076924,62.42200165987015L128.86177884615384,57.583998888731L133.30528846153848,59.94399927556515L137.7487980769231,60.88800206780434L142.1923076923077,58.05599369108677L146.6358173076923,57.583998888731L151.07932692307693,62.30399966239929L155.52283653846152,60.53399607539177L159.96634615384616,61.12400606274605L164.40985576923077,58.8819944858551L168.8533653846154,57.11200408637524L173.296875,61.949993669986725L177.7403846153846,58.52800168097019L182.18389423076923,57.583998888731L186.62740384615387,58.05599369108677L191.07091346153845,56.75799809396267L195.5144230769231,56.876000091433525L199.95793269230768,57.46599689126015L204.40144230769232,56.99400208890438L208.8449519230769,57.23000608384609L213.28846153846155,56.75799809396267L217.73197115384616,56.876000091433525" style="fill: none;" fill="none"></path></g><g><path stroke="rgb(187, 187, 187)" stroke-width="2px" d="M22.217548076923077,148.53126246482134L26.661057692307693,119.21394445002079L31.10456730769231,111.19956079870462L35.54807692307693,104.95305754244328L39.99158653846154,85.62425650656223L44.43509615384615,77.99291118979454L48.878605769230774,76.49020560085773L53.32211538461539,75.282162129879L57.765625,73.24910692870617L62.20913461538462,71.77587546408176L66.65264423076924,71.74640133976936L71.09615384615385,70.65621480345726L75.53966346153847,69.91959907114506L79.98317307692308,68.56422454118729L84.4266826923077,69.27137933671474L88.8701923076923,69.00619134306908L93.31370192307693,66.59009121358395L97.75721153846155,65.14632068574429L102.20072115384616,69.27137933671474L106.64423076923077,68.18117961287498L111.08774038461539,66.79634414613247L115.53125,65.26417762041092L119.97475961538463,65.824014544487L124.41826923076924,67.3561678826809L128.86177884615384,64.11505602300167L133.30528846153848,65.17579481005669L137.7487980769231,64.05613414943218L142.1923076923077,64.96954187750816L146.6358173076923,63.732024282217026L151.07932692307693,64.94006775319576L155.52283653846152,65.29365174472332L159.96634615384616,62.93647348880768L164.40985576923077,63.61416734755039L168.8533653846154,62.7891556173563L173.296875,64.11505602300167L177.7403846153846,65.67668348550797L182.18389423076923,60.07840655744076L186.62740384615387,59.99001055955887L191.07091346153845,59.81321856379509L195.5144230769231,56.63104176521301L199.95793269230768,60.52037335932255L204.40144230769232,58.54624003171921L208.8449519230769,58.78196708858013L213.28846153846155,59.84269268810749L217.73197115384616,60.57930842041969" style="fill: none;" fill="none"></path></g><g><path stroke="rgb(238, 51, 119)" stroke-width="2px" d="M22.217548076923077,116.23000256717205L26.661057692307693,96.4059966802597L31.10456730769231,94.98999908566475L35.54807692307693,76.46400198340416L39.99158653846154,79.53200116753578L44.43509615384615,72.09799401462078L48.878605769230774,69.50200282037258L53.32211538461539,73.27800080180168L57.765625,62.06799566745758L62.20913461538462,63.48400644958019" style="fill: none;" fill="none"></path></g><g><path stroke="rgb(51, 187, 238)" stroke-width="2px" d="M22.217548076923077,148.32500953227282L26.661057692307693,108.96024607121944L31.10456730769231,93.81542555987835L35.54807692307693,85.00549770891666L39.99158653846154,77.25629545748234L44.43509615384615,72.68927000463009L48.878605769230774,69.00619134306908L53.32211538461539,66.05972841382027L57.765625,64.79274988174438L62.20913461538462,57.75070242583752" style="fill: none;" fill="none"></path></g><g><path stroke="rgb(204, 51, 17)" stroke-width="2px" d="M22.217548076923077,113.27999878674746L26.661057692307693,106.082002222538L31.10456730769231,107.26199582219124L35.54807692307693,87.08399713039398L39.99158653846154,74.57599639892578L44.43509615384615,71.74400120973587L48.878605769230774,68.08600522577763L53.32211538461539,67.37800642848015L57.765625,64.78200204670429L62.20913461538462,64.66400004923344" style="fill: none;" fill="none"></path></g><g><path stroke="rgb(0, 119, 187)" stroke-width="2px" d="M22.217548076923077,147.70625073462725L26.661057692307693,119.09608751535416L31.10456730769231,108.66559714078903L35.54807692307693,105.83699114620686L39.99158653846154,83.44387024641037L44.43509615384615,78.14022906124592L48.878605769230774,76.16609573364258L53.32211538461539,74.25089746713638L57.765625,74.25089746713638L62.20913461538462,73.86785253882408" style="fill: none;" fill="none"></path></g><g><path stroke="rgb(255, 112, 67)" stroke-width="2px" d="M22.217548076923077,100.65400265157223L26.661057692307693,83.18999715149403L31.10456730769231,78.46999637782574L35.54807692307693,84.01599794626236L39.99158653846154,73.04199680685997L44.43509615384615,82.01000355184078L48.878605769230774,75.75600318610668L53.32211538461539,71.03600241243839L57.765625,69.14799682796001L62.20913461538462,68.55800002813339" style="fill: none;" fill="none"></path></g><g><path stroke="rgb(187, 187, 187)" stroke-width="2px" d="M22.217548076923077,134.97752375900745L26.661057692307693,99.70835141837597L31.10456730769231,92.22433716058731L35.54807692307693,87.98142157495022L39.99158653846154,85.15281558036804L44.43509615384615,83.85637611150742L48.878605769230774,81.14562705159187L53.32211538461539,79.61346052587032L57.765625,79.87864851951599L62.20913461538462,76.87325052917004" style="fill: none;" fill="none"></path></g><g><path stroke="rgb(0, 153, 136)" stroke-width="2px" d="M22.217548076923077,123.19200173020363L26.661057692307693,107.49799981713295L31.10456730769231,96.76000267267227L35.54807692307693,90.50600230693817L39.99158653846154,86.84800632297993L44.43509615384615,84.8419987410307L48.878605769230774,81.77399955689907L53.32211538461539,78.70600037276745L57.765625,77.2900027781725L62.20913461538462,76.10999599099159" style="fill: none;" fill="none"></path></g><g><path stroke="rgb(238, 51, 119)" stroke-width="2px" d="M22.217548076923077,176.49320924654603L26.661057692307693,137.7472012862563L31.10456730769231,121.86575844883919L35.54807692307693,113.96923832595348L39.99158653846154,110.10936766862869L44.43509615384615,104.21644181013107L48.878605769230774,101.06372594833374L53.32211538461539,96.85028448700905L57.765625,97.32171222567558L62.20913461538462,94.90561209619045" style="fill: none;" fill="none"></path></g><g><path stroke="rgb(51, 187, 238)" stroke-width="2px" d="M22.217548076923077,191.04199966415763L26.661057692307693,169.4480000808835L31.10456730769231,156.9399993494153L35.54807692307693,151.03999838232994L39.99158653846154,143.72399982064962L44.43509615384615,134.52000226825476L48.878605769230774,128.02999790757895L53.32211538461539,126.84999771416187L57.765625,124.01800252497196L62.20913461538462,119.65200114995241" style="fill: none;" fill="none"></path></g><g><path stroke="rgb(204, 51, 17)" stroke-width="2px" d="M35.54807692307693,177.7601877786219L39.99158653846154,171.51368452236056L44.43509615384615,165.5028984323144L48.878605769230774,159.60996598005295L53.32211538461539,152.45006158947945L57.765625,148.53126246482134L62.20913461538462,143.99370454251766" style="fill: none;" fill="none"></path></g><g><path style="fill: none;" fill="none" stroke="none" stroke-width="1px"></path></g><g><path style="fill: none;" fill="none" stroke="none" stroke-width="1px"></path></g><g><path stroke="rgb(187, 187, 187)" stroke-width="2px" d="M22.217548076923077,77.2900027781725L26.661057692307693,66.78799644112587L31.10456730769231,66.3160016387701L35.54807692307693,62.42200165987015L39.99158653846154,56.876000091433525L44.43509615384615,55.46000249683857L48.878605769230774,60.415994077920914L53.32211538461539,55.69600649178028L57.765625,45.548006147146225L62.20913461538462,43.070003762841225L66.65264423076924,41.41800217330456L71.09615384615385,42.71599777042866L75.53966346153847,40.0020045787096L79.98317307692308,40.945994183421135L84.4266826923077,42.479993775486946L88.8701923076923,40.71000337600708L93.31370192307693,39.647998586297035L97.75721153846155,42.5979957729578L102.20072115384616,40.12000657618046" style="fill: none;" fill="none"></path></g><g><path stroke="rgb(0, 153, 136)" stroke-width="2px" d="M22.217548076923077,112.23082546144724L26.661057692307693,76.90271146595478L31.10456730769231,64.96954187750816L35.54807692307693,58.811428025364876L39.99158653846154,56.54264576733112L44.43509615384615,49.44167643785477L48.878605769230774,49.02917057275772L53.32211538461539,47.05503724515438L57.765625,31.733424738049507L62.20913461538462,28.43337781727314L66.65264423076924,25.516375824809074L71.09615384615385,23.571716621518135L75.53966346153847,23.98422248661518L79.98317307692308,24.013683423399925L84.4266826923077,22.98241876065731L88.8701923076923,23.277067691087723L93.31370192307693,22.923496887087822L97.75721153846155,22.01008915901184L102.20072115384616,21.214538365602493" style="fill: none;" fill="none"></path></g></g></g></g></g></g><g transform="translate(41, 177)" clip-path="url(#clip_1)"><clipPath id="clip_1"><rect width="288" height="23"></rect></clipPath><g><g><line x1="0" y1="0" x2="0" y2="5" style="visibility: inherit;" fill="rgb(0, 0, 0)" stroke="rgb(204, 204, 204)" stroke-width="1px"></line><line x1="22.217548076923077" y1="0" x2="22.217548076923077" y2="5" style="visibility: inherit;" fill="rgb(0, 0, 0)" stroke="rgb(204, 204, 204)" stroke-width="1px"></line><line x1="44.43509615384615" y1="0" x2="44.43509615384615" y2="5" style="visibility: inherit;" fill="rgb(0, 0, 0)" stroke="rgb(204, 204, 204)" stroke-width="1px"></line><line x1="66.65264423076924" y1="0" x2="66.65264423076924" y2="5" style="visibility: inherit;" fill="rgb(0, 0, 0)" stroke="rgb(204, 204, 204)" stroke-width="1px"></line><line x1="88.8701923076923" y1="0" x2="88.8701923076923" y2="5" style="visibility: inherit;" fill="rgb(0, 0, 0)" stroke="rgb(204, 204, 204)" stroke-width="1px"></line><line x1="111.08774038461539" y1="0" x2="111.08774038461539" y2="5" style="visibility: inherit;" fill="rgb(0, 0, 0)" stroke="rgb(204, 204, 204)" stroke-width="1px"></line><line x1="133.30528846153848" y1="0" x2="133.30528846153848" y2="5" style="visibility: inherit;" fill="rgb(0, 0, 0)" stroke="rgb(204, 204, 204)" stroke-width="1px"></line><line x1="155.52283653846152" y1="0" x2="155.52283653846152" y2="5" style="visibility: inherit;" fill="rgb(0, 0, 0)" stroke="rgb(204, 204, 204)" stroke-width="1px"></line><line x1="177.7403846153846" y1="0" x2="177.7403846153846" y2="5" style="visibility: inherit;" fill="rgb(0, 0, 0)" stroke="rgb(204, 204, 204)" stroke-width="1px"></line><line x1="199.95793269230768" y1="0" x2="199.95793269230768" y2="5" style="visibility: inherit;" fill="rgb(0, 0, 0)" stroke="rgb(204, 204, 204)" stroke-width="1px"></line><line x1="222.17548076923077" y1="0" x2="222.17548076923077" y2="5" style="visibility: inherit;" fill="rgb(0, 0, 0)" stroke="rgb(204, 204, 204)" stroke-width="1px"></line><line x1="244.39302884615384" y1="0" x2="244.39302884615384" y2="5" style="visibility: inherit;" fill="rgb(0, 0, 0)" stroke="rgb(204, 204, 204)" stroke-width="1px"></line><line x1="266.61057692307696" y1="0" x2="266.61057692307696" y2="5" style="visibility: inherit;" fill="rgb(0, 0, 0)" stroke="rgb(204, 204, 204)" stroke-width="1px"></line><line x1="288.828125" y1="0" x2="288.828125" y2="5" style="visibility: inherit;" fill="rgb(0, 0, 0)" stroke="rgb(204, 204, 204)" stroke-width="1px"></line></g><g transform="translate(0, 8)"><text x="0" y="0" dx="0em" dy="0.95em" style="text-anchor: middle; visibility: hidden; font-family: Roboto, sans-serif; font-size: 12px; font-weight: 200;" fill="rgb(255, 255, 255)" stroke="none" stroke-width="1px">-5</text><text x="22.217548076923077" y="0" dx="0em" dy="0.95em" style="text-anchor: middle; visibility: inherit; font-family: Roboto, sans-serif; font-size: 12px; font-weight: 200;" fill="rgb(255, 255, 255)" stroke="none" stroke-width="1px">0</text><text x="44.43509615384615" y="0" dx="0em" dy="0.95em" style="text-anchor: middle; visibility: inherit; font-family: Roboto, sans-serif; font-size: 12px; font-weight: 200;" fill="rgb(255, 255, 255)" stroke="none" stroke-width="1px">5</text><text x="66.65264423076924" y="0" dx="0em" dy="0.95em" style="text-anchor: middle; visibility: inherit; font-family: Roboto, sans-serif; font-size: 12px; font-weight: 200;" fill="rgb(255, 255, 255)" stroke="none" stroke-width="1px">10</text><text x="88.8701923076923" y="0" dx="0em" dy="0.95em" style="text-anchor: middle; visibility: inherit; font-family: Roboto, sans-serif; font-size: 12px; font-weight: 200;" fill="rgb(255, 255, 255)" stroke="none" stroke-width="1px">15</text><text x="111.08774038461539" y="0" dx="0em" dy="0.95em" style="text-anchor: middle; visibility: inherit; font-family: Roboto, sans-serif; font-size: 12px; font-weight: 200;" fill="rgb(255, 255, 255)" stroke="none" stroke-width="1px">20</text><text x="133.30528846153848" y="0" dx="0em" dy="0.95em" style="text-anchor: middle; visibility: inherit; font-family: Roboto, sans-serif; font-size: 12px; font-weight: 200;" fill="rgb(255, 255, 255)" stroke="none" stroke-width="1px">25</text><text x="155.52283653846152" y="0" dx="0em" dy="0.95em" style="text-anchor: middle; visibility: inherit; font-family: Roboto, sans-serif; font-size: 12px; font-weight: 200;" fill="rgb(255, 255, 255)" stroke="none" stroke-width="1px">30</text><text x="177.7403846153846" y="0" dx="0em" dy="0.95em" style="text-anchor: middle; visibility: inherit; font-family: Roboto, sans-serif; font-size: 12px; font-weight: 200;" fill="rgb(255, 255, 255)" stroke="none" stroke-width="1px">35</text><text x="199.95793269230768" y="0" dx="0em" dy="0.95em" style="text-anchor: middle; visibility: inherit; font-family: Roboto, sans-serif; font-size: 12px; font-weight: 200;" fill="rgb(255, 255, 255)" stroke="none" stroke-width="1px">40</text><text x="222.17548076923077" y="0" dx="0em" dy="0.95em" style="text-anchor: middle; visibility: inherit; font-family: Roboto, sans-serif; font-size: 12px; font-weight: 200;" fill="rgb(255, 255, 255)" stroke="none" stroke-width="1px">45</text><text x="244.39302884615384" y="0" dx="0em" dy="0.95em" style="text-anchor: middle; visibility: inherit; font-family: Roboto, sans-serif; font-size: 12px; font-weight: 200;" fill="rgb(255, 255, 255)" stroke="none" stroke-width="1px">50</text><text x="266.61057692307696" y="0" dx="0em" dy="0.95em" style="text-anchor: middle; visibility: inherit; font-family: Roboto, sans-serif; font-size: 12px; font-weight: 200;" fill="rgb(255, 255, 255)" stroke="none" stroke-width="1px">55</text><text x="288.828125" y="0" dx="0em" dy="0.95em" style="text-anchor: middle; visibility: hidden; font-family: Roboto, sans-serif; font-size: 12px; font-weight: 200;" fill="rgb(255, 255, 255)" stroke="none" stroke-width="1px">60</text></g><line x1="0" y1="0" x2="288.828125" y2="0" fill="rgb(0, 0, 0)" stroke="rgb(204, 204, 204)" stroke-width="1px"></line></g></g></g></g></svg>